<svg width="66" height="68" viewBox="0 0 66 68" fill="none" xmlns="http://www.w3.org/2000/svg">
<path d="M42 67.3332C40.6333 67.3332 39.5 66.1998 39.5 64.8332V3.1665C39.5 1.79984 40.6333 0.666504 42 0.666504C43.3667 0.666504 44.5 1.79984 44.5 3.1665V64.8332C44.5 66.1998 43.3667 67.3332 42 67.3332Z" fill="#F06022"/>
<path opacity="0.4" d="M13.6663 60.6668H33.6663V7.3335H13.6663C6.29967 7.3335 0.333008 13.3002 0.333008 20.6668V47.3335C0.333008 54.7002 6.29967 60.6668 13.6663 60.6668ZM51.9997 60.6668H41.9997V7.3335H51.9997C59.3663 7.3335 65.333 13.3002 65.333 20.6668V47.3335C65.333 54.7002 59.3663 60.6668 51.9997 60.6668Z" fill="#F06022"/>
<path d="M11.1667 37.3332C10.7334 37.3332 10.3 37.2332 9.90005 37.0665C9.50005 36.8998 9.13338 36.6665 8.80005 36.3665C8.50005 36.0332 8.26671 35.6665 8.06671 35.2665C7.90616 34.8638 7.82686 34.4333 7.83338 33.9998C7.83338 33.1332 8.20005 32.2665 8.80005 31.6332L9.30005 31.2332C9.50005 31.0998 9.70005 30.9998 9.90005 30.9332C10.1 30.8332 10.3 30.7665 10.5 30.7332C11.6334 30.4998 12.7667 30.8665 13.5334 31.6332C14.1334 32.2665 14.5 33.1332 14.5 33.9998C14.5 34.4332 14.4 34.8665 14.2334 35.2665C14.0667 35.6665 13.8334 36.0332 13.5334 36.3665C13.2 36.6665 12.8334 36.8998 12.4334 37.0665C12.0334 37.2332 11.6 37.3332 11.1667 37.3332ZM22.8334 37.3332C22.4 37.3332 21.9667 37.2332 21.5667 37.0665C21.1667 36.8998 20.8 36.6665 20.4667 36.3665C20.0003 35.9002 19.6844 35.3048 19.5596 34.6572C19.4348 34.0096 19.507 33.3394 19.7667 32.7332C19.9334 32.2998 20.1667 31.9665 20.4667 31.6332C21.7 30.3998 23.9334 30.3998 25.2 31.6332C25.8 32.2665 26.1667 33.1332 26.1667 33.9998C26.1667 34.4332 26.0667 34.8665 25.9 35.2665C25.7334 35.6665 25.5 36.0332 25.2 36.3665C24.8667 36.6665 24.5 36.8998 24.1 37.0665C23.7 37.2332 23.2667 37.3332 22.8334 37.3332Z" fill="#F06022"/>
</svg>
