<svg width="67" height="63" viewBox="0 0 67 63" fill="none" xmlns="http://www.w3.org/2000/svg">
<path opacity="0.4" d="M50.1667 56.8337H16.8334C6.83341 56.8337 0.166748 51.8337 0.166748 40.167V16.8337C0.166748 5.16699 6.83341 0.166992 16.8334 0.166992H50.1667C60.1667 0.166992 66.8334 5.16699 66.8334 16.8337V40.167C66.8334 51.8337 60.1667 56.8337 50.1667 56.8337Z" fill="#F06022"/>
<path d="M33.4967 31.4067C30.6967 31.4067 27.8634 30.5401 25.6967 28.7734L15.2634 20.4401C14.7782 20.0188 14.4744 19.4265 14.4154 18.7867C14.3563 18.1469 14.5465 17.5089 14.9463 17.006C15.3461 16.503 15.9247 16.1737 16.5613 16.0869C17.198 16.0001 17.8435 16.1625 18.3634 16.5401L28.7967 24.8734C31.3301 26.9067 35.6301 26.9067 38.1634 24.8734L48.5967 16.5401C49.6634 15.6734 51.2634 15.8401 52.0967 16.9401C52.9634 18.0067 52.7967 19.6067 51.6967 20.4401L41.2634 28.7734C39.1301 30.5401 36.2967 31.4067 33.4967 31.4067Z" fill="#F06022"/>
<circle cx="56.5" cy="52.5" r="7" fill="white"/>
<path d="M56.5 42.5C50.99 42.5 46.5 46.99 46.5 52.5C46.5 58.01 50.99 62.5 56.5 62.5C62.01 62.5 66.5 58.01 66.5 52.5C66.5 46.99 62.01 42.5 56.5 42.5ZM61.28 50.2L55.61 55.87C55.4694 56.0105 55.2788 56.0893 55.08 56.0893C54.8812 56.0893 54.6906 56.0105 54.55 55.87L51.72 53.04C51.5805 52.8989 51.5023 52.7084 51.5023 52.51C51.5023 52.3116 51.5805 52.1211 51.72 51.98C52.01 51.69 52.49 51.69 52.78 51.98L55.08 54.28L60.22 49.14C60.51 48.85 60.99 48.85 61.28 49.14C61.57 49.43 61.57 49.9 61.28 50.2Z" fill="#39A51E"/>
</svg>
