<svg width="24" height="24" viewBox="0 0 24 24" fill="none" xmlns="http://www.w3.org/2000/svg">
<path d="M15 22.75H9C3.57 22.75 1.25 20.43 1.25 15V9C1.25 3.57 3.57 1.25 9 1.25H15C20.43 1.25 22.75 3.57 22.75 9V15C22.75 20.43 20.43 22.75 15 22.75ZM9 2.75C4.39 2.75 2.75 4.39 2.75 9V15C2.75 19.61 4.39 21.25 9 21.25H15C19.61 21.25 21.25 19.61 21.25 15V9C21.25 4.39 19.61 2.75 15 2.75H9Z" fill="#F06022"/>
<path d="M14.11 17.61C13.92 17.61 13.73 17.54 13.58 17.39C13.4405 17.2489 13.3623 17.0584 13.3623 16.86C13.3623 16.6616 13.4405 16.4711 13.58 16.33L16.62 13.29C16.91 13 17.39 13 17.68 13.29C17.97 13.58 17.97 14.06 17.68 14.35L14.64 17.39C14.4995 17.5307 14.3089 17.6098 14.11 17.61Z" fill="#F06022"/>
<path d="M17.15 14.57H6.85001C6.44001 14.57 6.10001 14.23 6.10001 13.82C6.10001 13.41 6.44001 13.07 6.85001 13.07H17.16C17.57 13.07 17.91 13.41 17.91 13.82C17.91 14.23 17.57 14.57 17.15 14.57ZM6.85001 10.93C6.66001 10.93 6.47001 10.86 6.32001 10.71C6.18077 10.5687 6.10271 10.3783 6.10271 10.18C6.10271 9.98164 6.18077 9.79125 6.32001 9.64999L9.36001 6.60999C9.65001 6.31999 10.13 6.31999 10.42 6.60999C10.71 6.89999 10.71 7.37999 10.42 7.66999L7.38001 10.71C7.23001 10.86 7.04001 10.93 6.85001 10.93Z" fill="#F06022"/>
<path d="M17.15 10.93H6.85001C6.44001 10.93 6.10001 10.59 6.10001 10.18C6.10001 9.76999 6.44001 9.42999 6.85001 9.42999H17.16C17.57 9.42999 17.91 9.76999 17.91 10.18C17.91 10.59 17.57 10.93 17.15 10.93Z" fill="#F06022"/>
</svg>
