<svg width="18" height="9" viewBox="0 0 18 9" fill="none" xmlns="http://www.w3.org/2000/svg">
<path d="M9.00001 8.80001C8.30001 8.80001 7.60001 8.53001 7.07001 8.00001L0.550007 1.48001C0.410527 1.33888 0.332306 1.14844 0.332306 0.950014C0.332306 0.751584 0.410527 0.561152 0.550007 0.420015C0.840007 0.130015 1.32001 0.130015 1.61001 0.420015L8.13001 6.94001C8.61001 7.42001 9.39001 7.42001 9.87001 6.94001L16.39 0.420015C16.68 0.130015 17.16 0.130015 17.45 0.420015C17.74 0.710015 17.74 1.19001 17.45 1.48001L10.93 8.00001C10.4 8.53001 9.70001 8.80001 9.00001 8.80001Z" fill="#919192"/>
</svg>
