<svg width="36" height="36" viewBox="0 0 36 36" fill="none" xmlns="http://www.w3.org/2000/svg">
<circle cx="18" cy="18" r="17" fill="#F06022" stroke="white" stroke-width="2"/>
<path d="M24 12C23.39 12 22.83 11.65 22.55 11.11L21.83 9.66C21.37 8.75 20.17 8 19.15 8H16.86C15.83 8 14.63 8.75 14.17 9.66L13.45 11.11C13.17 11.65 12.61 12 12 12C9.83 12 8.11 13.83 8.25 15.99L8.77 24.25C8.89 26.31 10 28 12.76 28H23.24C26 28 27.1 26.31 27.23 24.25L27.75 15.99C27.7824 15.4778 27.7094 14.9645 27.5356 14.4816C27.3617 13.9988 27.0907 13.5567 26.7392 13.1827C26.3878 12.8088 25.9634 12.5109 25.4922 12.3075C25.0211 12.104 24.5132 11.9994 24 12ZM16.5 13.25H19.5C19.91 13.25 20.25 13.59 20.25 14C20.25 14.41 19.91 14.75 19.5 14.75H16.5C16.09 14.75 15.75 14.41 15.75 14C15.75 13.59 16.09 13.25 16.5 13.25ZM18 24.12C16.14 24.12 14.62 22.61 14.62 20.74C14.62 18.87 16.13 17.36 18 17.36C19.87 17.36 21.38 18.87 21.38 20.74C21.38 22.61 19.86 24.12 18 24.12Z" fill="white"/>
</svg>
