<svg width="24" height="24" viewBox="0 0 24 24" fill="none" xmlns="http://www.w3.org/2000/svg">
<path d="M11.4 22.75H7.6C3.21 22.75 1.25 20.79 1.25 16.4V12.6C1.25 8.21 3.21 6.25 7.6 6.25H10.6C11.01 6.25 11.35 6.59 11.35 7C11.35 7.41 11.01 7.75 10.6 7.75H7.6C4.02 7.75 2.75 9.02 2.75 12.6V16.4C2.75 19.98 4.02 21.25 7.6 21.25H11.4C14.98 21.25 16.25 19.98 16.25 16.4V13.4C16.25 12.99 16.59 12.65 17 12.65C17.41 12.65 17.75 12.99 17.75 13.4V16.4C17.75 20.79 15.79 22.75 11.4 22.75Z" fill="#919192"/>
<path d="M17 14.149H13.8C10.99 14.149 9.84998 13.009 9.84998 10.199V6.999C9.84998 6.699 10.03 6.419 10.31 6.309C10.59 6.189 10.91 6.259 11.13 6.469L17.53 12.869C17.74 13.079 17.81 13.409 17.69 13.689C17.6341 13.8258 17.5384 13.9427 17.4155 14.0247C17.2925 14.1067 17.1478 14.15 17 14.149ZM11.35 8.809V10.199C11.35 12.189 11.81 12.649 13.8 12.649H15.19L11.35 8.809ZM15.6 2.75H11.6C11.19 2.75 10.85 2.41 10.85 2C10.85 1.59 11.19 1.25 11.6 1.25H15.6C16.01 1.25 16.35 1.59 16.35 2C16.35 2.41 16.01 2.75 15.6 2.75Z" fill="#919192"/>
<path d="M7 5.75C6.59 5.75 6.25 5.41 6.25 5C6.25 2.93 7.93 1.25 10 1.25H12.62C13.03 1.25 13.37 1.59 13.37 2C13.37 2.41 13.03 2.75 12.62 2.75H10C8.76 2.75 7.75 3.76 7.75 5C7.75 5.41 7.41 5.75 7 5.75ZM19.19 17.75C18.78 17.75 18.44 17.41 18.44 17C18.44 16.59 18.78 16.25 19.19 16.25C20.33 16.25 21.25 15.32 21.25 14.19V8C21.25 7.59 21.59 7.25 22 7.25C22.41 7.25 22.75 7.59 22.75 8V14.19C22.75 16.15 21.15 17.75 19.19 17.75Z" fill="#919192"/>
<path d="M22 8.749H19C16.34 8.749 15.25 7.659 15.25 4.999V1.999C15.25 1.699 15.43 1.419 15.71 1.309C15.99 1.189 16.31 1.259 16.53 1.469L22.53 7.469C22.74 7.679 22.81 8.009 22.69 8.289C22.6341 8.42581 22.5385 8.54274 22.4155 8.62473C22.2925 8.70672 22.1478 8.75 22 8.749ZM16.75 3.809V4.999C16.75 6.829 17.17 7.249 19 7.249H20.19L16.75 3.809Z" fill="#919192"/>
</svg>
