<svg width="56" height="56" viewBox="0 0 56 56" fill="none" xmlns="http://www.w3.org/2000/svg">
<path d="M36.8666 5.15666C35.91 4.19999 34.2533 4.85333 34.2533 6.18333V14.3267C34.2533 17.7333 37.1466 20.5567 40.67 20.5567C42.8866 20.58 45.9666 20.58 48.6033 20.58C49.9333 20.58 50.6333 19.0167 49.7 18.0833C46.34 14.7 40.32 8.60999 36.8666 5.15666Z" fill="#F5956C"/>
<path d="M47.8334 23.7767H41.09C35.56 23.7767 31.0567 19.2733 31.0567 13.7433V7.00001C31.0567 5.71667 30.0067 4.66667 28.7234 4.66667H18.83C11.6434 4.66667 5.83337 9.33334 5.83337 17.6633V38.3367C5.83337 46.6667 11.6434 51.3333 18.83 51.3333H37.17C44.3567 51.3333 50.1667 46.6667 50.1667 38.3367V26.11C50.1667 24.8267 49.1167 23.7767 47.8334 23.7767ZM26.8334 41.4167H17.5C16.5434 41.4167 15.75 40.6233 15.75 39.6667C15.75 38.71 16.5434 37.9167 17.5 37.9167H26.8334C27.79 37.9167 28.5834 38.71 28.5834 39.6667C28.5834 40.6233 27.79 41.4167 26.8334 41.4167ZM31.5 32.0833H17.5C16.5434 32.0833 15.75 31.29 15.75 30.3333C15.75 29.3767 16.5434 28.5833 17.5 28.5833H31.5C32.4567 28.5833 33.25 29.3767 33.25 30.3333C33.25 31.29 32.4567 32.0833 31.5 32.0833Z" fill="#F5956C"/>
</svg>
