<svg width="22" height="22" viewBox="0 0 22 22" fill="none" xmlns="http://www.w3.org/2000/svg">
<path d="M17.31 11.75C15.28 11.75 13.47 10.11 13.26 8.09L12.56 1.08C12.54 0.87 12.61 0.66 12.75 0.5C12.89 0.34 13.09 0.25 13.31 0.25H16.36C19.3 0.25 20.67 1.48 21.08 4.5L21.36 7.28C21.48 8.46 21.12 9.58 20.35 10.43C19.58 11.28 18.5 11.75 17.31 11.75ZM14.14 1.75L14.76 7.94C14.89 9.19 16.05 10.25 17.31 10.25C18.07 10.25 18.75 9.96 19.24 9.43C19.72 8.9 19.94 8.19 19.87 7.43L19.59 4.68C19.28 2.42 18.55 1.75 16.36 1.75H14.14ZM4.63898 11.75C3.44898 11.75 2.36898 11.28 1.59898 10.43C0.828984 9.58 0.468984 8.46 0.588984 7.28L0.858984 4.53C1.27898 1.48 2.64898 0.25 5.58898 0.25H8.63898C8.84898 0.25 9.04898 0.34 9.19898 0.5C9.34898 0.66 9.40898 0.87 9.38898 1.08L8.68898 8.09C8.47898 10.11 6.66898 11.75 4.63898 11.75ZM5.58898 1.75C3.39898 1.75 2.66898 2.41 2.34898 4.7L2.07898 7.43C1.99898 8.19 2.22898 8.9 2.70898 9.43C3.18898 9.96 3.86898 10.25 4.63898 10.25C5.89898 10.25 7.06898 9.19 7.18898 7.94L7.80898 1.75H5.58898ZM13.5 21.75H8.49998C8.08998 21.75 7.74998 21.41 7.74998 21V18.5C7.74998 16.4 8.89998 15.25 11 15.25C13.1 15.25 14.25 16.4 14.25 18.5V21C14.25 21.41 13.91 21.75 13.5 21.75ZM9.24998 20.25H12.75V18.5C12.75 17.24 12.26 16.75 11 16.75C9.73998 16.75 9.24998 17.24 9.24998 18.5V20.25Z" fill="#919192"/>
</svg>
