<svg width="25" height="24" viewBox="0 0 25 24" fill="none" xmlns="http://www.w3.org/2000/svg">
<g clip-path="url(#clip0_162_5476)">
<path d="M12.6665 15.25C10.8765 15.25 9.4165 13.79 9.4165 12C9.4165 10.21 10.8765 8.75 12.6665 8.75C14.4565 8.75 15.9165 10.21 15.9165 12C15.9165 13.79 14.4565 15.25 12.6665 15.25ZM12.6665 10.25C11.7065 10.25 10.9165 11.04 10.9165 12C10.9165 12.96 11.7065 13.75 12.6665 13.75C13.6265 13.75 14.4165 12.96 14.4165 12C14.4165 11.04 13.6265 10.25 12.6665 10.25ZM19.1665 15.25C18.7565 15.25 18.4165 14.91 18.4165 14.5V9.5C18.4165 9.09 18.7565 8.75 19.1665 8.75C19.5765 8.75 19.9165 9.09 19.9165 9.5V14.5C19.9165 14.91 19.5765 15.25 19.1665 15.25ZM5.6665 22.75C4.0065 22.75 2.4465 21.87 1.6065 20.44C1.1565 19.72 0.916504 18.87 0.916504 18C0.916504 15.38 3.0465 13.25 5.6665 13.25C8.2865 13.25 10.4165 15.38 10.4165 18C10.4165 18.87 10.1765 19.72 9.7265 20.45C8.8865 21.87 7.3265 22.75 5.6665 22.75ZM5.6665 14.75C3.8765 14.75 2.4165 16.21 2.4165 18C2.4165 18.59 2.5765 19.17 2.8865 19.67C3.4665 20.65 4.5365 21.25 5.6665 21.25C6.52797 21.2484 7.3537 20.9055 7.96285 20.2963C8.572 19.6872 8.91492 18.8615 8.9165 18C8.9165 16.21 7.4565 14.75 5.6665 14.75Z" fill="#F06022"/>
<path d="M5.09569 19.741C4.90569 19.741 4.71569 19.671 4.56569 19.521L3.57569 18.531C3.43645 18.3898 3.3584 18.1994 3.3584 18.001C3.3584 17.8027 3.43645 17.6123 3.57569 17.471C3.86569 17.181 4.3457 17.181 4.63569 17.471L5.11569 17.951L6.71569 16.471C7.01569 16.191 7.49569 16.211 7.77569 16.511C8.0557 16.811 8.0357 17.291 7.73569 17.571L5.6057 19.541C5.45569 19.671 5.27569 19.741 5.09569 19.741Z" fill="#F06022"/>
<path d="M17.6665 20.75H9.1665C8.7565 20.75 8.4165 20.41 8.4165 20C8.4165 19.59 8.7565 19.25 9.1665 19.25H17.6665C20.5265 19.25 21.9165 17.86 21.9165 15V9C21.9165 6.14 20.5265 4.75 17.6665 4.75H7.6665C4.8065 4.75 3.4165 6.14 3.4165 9V15.3C3.4165 15.71 3.0765 16.05 2.6665 16.05C2.2565 16.05 1.9165 15.71 1.9165 15.3V9C1.9165 5.35 4.0165 3.25 7.6665 3.25H17.6665C21.3165 3.25 23.4165 5.35 23.4165 9V15C23.4165 18.65 21.3165 20.75 17.6665 20.75Z" fill="#F06022"/>
</g>
<defs>
<clipPath id="clip0_162_5476">
<rect width="24" height="24" fill="white" transform="translate(0.666504)"/>
</clipPath>
</defs>
</svg>
