<svg width="14" height="16" viewBox="0 0 14 16" fill="none" xmlns="http://www.w3.org/2000/svg">
<path d="M7.00134 15.1733C5.97429 15.1714 4.98775 14.7724 4.248 14.06C2.28134 12.1666 0.108005 9.14665 0.928005 5.55331C1.668 2.29331 4.51467 0.833313 7.00134 0.833313H7.008C9.49467 0.833313 12.3413 2.29331 13.0813 5.55998C13.8947 9.15331 11.7213 12.1666 9.75467 14.06C9.01492 14.7724 8.02839 15.1714 7.00134 15.1733ZM7.00134 1.83331C5.06134 1.83331 2.568 2.86665 1.908 5.77331C1.188 8.91331 3.16134 11.62 4.948 13.3333C5.49868 13.8688 6.23653 14.1685 7.00467 14.1685C7.77281 14.1685 8.51066 13.8688 9.06134 13.3333C10.8413 11.62 12.8147 8.91331 12.108 5.77331C11.4413 2.86665 8.94134 1.83331 7.00134 1.83331Z" fill="#919192"/>
</svg>
