<svg width="40" height="40" viewBox="0 0 40 40" fill="none" xmlns="http://www.w3.org/2000/svg">
<circle cx="20" cy="20" r="19.5" transform="rotate(-180 20 20)" stroke="#E4E4E4"/>
<path fill-rule="evenodd" clip-rule="evenodd" d="M18.2012 13.5561C18.0593 13.4142 17.8795 13.348 17.6998 13.348C17.52 13.348 17.3403 13.4142 17.1983 13.5561L11.4557 19.2987C11.1813 19.5731 11.1813 20.0272 11.4557 20.3016L17.1983 26.0442C17.4727 26.3186 17.9268 26.3186 18.2012 26.0442C18.3331 25.9107 18.4071 25.7305 18.4071 25.5428C18.4071 25.3551 18.3331 25.1749 18.2012 25.0414L13.6695 20.5097L28.0404 20.5097C28.4283 20.5097 28.75 20.1881 28.75 19.8002C28.75 19.4123 28.4283 19.0906 28.0404 19.0906L13.6695 19.0906L18.2012 14.5589C18.3331 14.4254 18.4071 14.2453 18.4071 14.0575C18.4071 13.8698 18.3331 13.6896 18.2012 13.5561Z" fill="#282828"/>
</svg>
