<svg width="23" height="22" viewBox="0 0 23 22" fill="none" xmlns="http://www.w3.org/2000/svg">
<path d="M10.9678 20.7501C5.31777 20.7501 0.717773 16.1501 0.717773 10.5001C0.717773 4.85012 5.31777 0.250122 10.9678 0.250122C16.6178 0.250122 21.2178 4.85012 21.2178 10.5001C21.2178 16.1501 16.6178 20.7501 10.9678 20.7501ZM10.9678 1.75012C6.13777 1.75012 2.21777 5.68012 2.21777 10.5001C2.21777 15.3201 6.13777 19.2501 10.9678 19.2501C15.7978 19.2501 19.7178 15.3201 19.7178 10.5001C19.7178 5.68012 15.7978 1.75012 10.9678 1.75012ZM21.4678 21.7511C21.2778 21.7511 21.0878 21.6811 20.9378 21.5311L18.9378 19.5311C18.7983 19.39 18.7201 19.1996 18.7201 19.0011C18.7201 18.8027 18.7983 18.6123 18.9378 18.4711C19.2278 18.1811 19.7078 18.1811 19.9978 18.4711L21.9978 20.4711C22.2878 20.7611 22.2878 21.2411 21.9978 21.5311C21.8478 21.6811 21.6578 21.7511 21.4678 21.7511Z" fill="#48484A"/>
</svg>
