<svg width="81" height="80" viewBox="0 0 81 80" fill="none" xmlns="http://www.w3.org/2000/svg">
<g clip-path="url(#clip0_77_3414)">
<path opacity="0.4" d="M71.7334 37.9667V57.9333C71.7334 67.1333 64.2667 74.6 55.0667 74.6H25.9334C16.7334 74.6 9.26672 67.1333 9.26672 57.9333V38.2C11.8001 40.9333 15.4001 42.5 19.3001 42.5C23.5001 42.5 27.5334 40.4 30.0667 37.0333C31.2235 38.7309 32.7804 40.1176 34.6 41.071C36.4196 42.0244 38.4459 42.5152 40.5001 42.5C44.7667 42.5 48.5667 40.5 50.8667 37.1667C53.4334 40.4667 57.4001 42.5 61.5334 42.5C65.5667 42.5 69.2334 40.8667 71.7334 37.9667Z" fill="#F06022"/>
<path d="M50.4666 4.16663H30.4666L28 28.7C27.8 30.9666 28.1333 33.1 28.9666 35.0333C30.9 39.5666 35.4333 42.5 40.5 42.5C45.6333 42.5 50.0666 39.6333 52.0666 35.0666C52.6666 33.6333 53.0333 31.9666 53.0666 30.2666V29.6333L50.4666 4.16663Z" fill="#F06022"/>
<path opacity="0.6" d="M75.0334 27.5666L74.0667 18.3333C72.6667 8.26663 68.1001 4.16663 58.3334 4.16663H45.5334L48.0001 29.1666C48.0334 29.5 48.0667 29.8666 48.0667 30.5C48.2667 32.2333 48.8001 33.8333 49.6001 35.2666C52.0001 39.6666 56.6667 42.5 61.5334 42.5C65.9667 42.5 69.9667 40.5333 72.4667 37.0666C74.4667 34.4 75.3667 31.0333 75.0334 27.5666ZM22.4667 4.16663C12.6667 4.16663 8.13339 8.26663 6.70005 18.4333L5.80005 27.6C5.46672 31.1666 6.43339 34.6333 8.53339 37.3333C11.0667 40.6333 14.9667 42.5 19.3001 42.5C24.1667 42.5 28.8334 39.6666 31.2001 35.3333C32.0667 33.8333 32.6334 32.1 32.8001 30.3L35.4001 4.19996H22.4667V4.16663Z" fill="#F06022"/>
<path d="M38.3333 55.5334C36.2869 55.7519 34.3942 56.7215 33.0213 58.2546C31.6483 59.7877 30.8924 61.7754 30.9 63.8334V74.6H50.0666V65C50.1 58.0334 46 54.7334 38.3333 55.5334Z" fill="#F06022"/>
<path d="M67.1667 74.4444C73.3033 74.4444 78.2778 69.4699 78.2778 63.3333C78.2778 57.1966 73.3033 52.2222 67.1667 52.2222C61.03 52.2222 56.0555 57.1966 56.0555 63.3333C56.0555 69.4699 61.03 74.4444 67.1667 74.4444Z" fill="#DB3B1B"/>
<path d="M68.3444 63.3334L70.9 60.7778C71.2222 60.4556 71.2222 59.9223 70.9 59.6C70.7432 59.4451 70.5316 59.3582 70.3111 59.3582C70.0906 59.3582 69.879 59.4451 69.7222 59.6L67.1666 62.1556L64.6111 59.6C64.4543 59.4451 64.2427 59.3582 64.0222 59.3582C63.8017 59.3582 63.5901 59.4451 63.4333 59.6C63.1111 59.9223 63.1111 60.4556 63.4333 60.7778L65.9889 63.3334L63.4333 65.8889C63.1111 66.2112 63.1111 66.7445 63.4333 67.0667C63.6 67.2334 63.8111 67.3112 64.0222 67.3112C64.2333 67.3112 64.4444 67.2334 64.6111 67.0667L67.1666 64.5112L69.7222 67.0667C69.8889 67.2334 70.1 67.3112 70.3111 67.3112C70.5222 67.3112 70.7333 67.2334 70.9 67.0667C71.2222 66.7445 71.2222 66.2112 70.9 65.8889L68.3444 63.3334Z" fill="white"/>
</g>
<defs>
<clipPath id="clip0_77_3414">
<rect width="80" height="80" fill="white" transform="translate(0.5)"/>
</clipPath>
</defs>
</svg>
