<svg width="25" height="24" viewBox="0 0 25 24" fill="none" xmlns="http://www.w3.org/2000/svg">
<path d="M13.7165 16.248H11.8365C10.5065 16.248 9.4165 15.128 9.4165 13.748C9.4165 13.338 9.7565 12.998 10.1665 12.998C10.5765 12.998 10.9165 13.338 10.9165 13.748C10.9165 14.298 11.3265 14.748 11.8365 14.748H13.7165C14.1065 14.748 14.4165 14.398 14.4165 13.968C14.4165 13.428 14.2665 13.348 13.9265 13.228L10.9165 12.178C10.2765 11.958 9.4165 11.488 9.4165 10.018C9.4165 8.76804 10.4065 7.73804 11.6165 7.73804H13.4965C14.8265 7.73804 15.9165 8.85804 15.9165 10.238C15.9165 10.648 15.5765 10.988 15.1665 10.988C14.7565 10.988 14.4165 10.648 14.4165 10.238C14.4165 9.68804 14.0065 9.23804 13.4965 9.23804H11.6165C11.2265 9.23804 10.9165 9.58804 10.9165 10.018C10.9165 10.558 11.0665 10.638 11.4065 10.758L14.4165 11.808C15.0565 12.028 15.9165 12.498 15.9165 13.968C15.9165 15.228 14.9265 16.248 13.7165 16.248Z" fill="#F06022"/>
<path d="M12.6665 17.25C12.2565 17.25 11.9165 16.91 11.9165 16.5V7.5C11.9165 7.09 12.2565 6.75 12.6665 6.75C13.0765 6.75 13.4165 7.09 13.4165 7.5V16.5C13.4165 16.91 13.0765 17.25 12.6665 17.25Z" fill="#F06022"/>
<path d="M12.6665 22.75C6.7365 22.75 1.9165 17.93 1.9165 12C1.9165 6.07 6.7365 1.25 12.6665 1.25C13.0765 1.25 13.4165 1.59 13.4165 2C13.4165 2.41 13.0765 2.75 12.6665 2.75C7.5665 2.75 3.4165 6.9 3.4165 12C3.4165 17.1 7.5665 21.25 12.6665 21.25C17.7665 21.25 21.9165 17.1 21.9165 12C21.9165 11.59 22.2565 11.25 22.6665 11.25C23.0765 11.25 23.4165 11.59 23.4165 12C23.4165 17.93 18.5965 22.75 12.6665 22.75Z" fill="#F06022"/>
<path d="M21.6665 7.75H17.6665C17.2565 7.75 16.9165 7.41 16.9165 7V3C16.9165 2.59 17.2565 2.25 17.6665 2.25C18.0765 2.25 18.4165 2.59 18.4165 3V6.25H21.6665C22.0765 6.25 22.4165 6.59 22.4165 7C22.4165 7.41 22.0765 7.75 21.6665 7.75Z" fill="#F06022"/>
<path d="M17.6676 7.75104C17.4776 7.75104 17.2876 7.68104 17.1376 7.53104C16.9981 7.3899 16.9199 7.19947 16.9199 7.00104C16.9199 6.80261 16.9981 6.61218 17.1376 6.47104L22.1376 1.47104C22.4276 1.18104 22.9076 1.18104 23.1976 1.47104C23.4876 1.76104 23.4876 2.24104 23.1976 2.53104L18.1976 7.53104C18.0476 7.68104 17.8576 7.75104 17.6676 7.75104Z" fill="#F06022"/>
</svg>
