<svg width="25" height="24" viewBox="0 0 25 24" fill="none" xmlns="http://www.w3.org/2000/svg">
<path d="M17.0243 22.75H7.64435C3.47435 22.75 2.20435 21.48 2.20435 17.31V16.85C2.20435 16.44 2.54435 16.1 2.95435 16.1C3.83435 16.1 4.55435 15.38 4.55435 14.5C4.55435 13.62 3.83435 12.9 2.95435 12.9C2.54435 12.9 2.20435 12.56 2.20435 12.15V11.69C2.20435 7.52 3.47435 6.25 7.64435 6.25H17.0243C21.1943 6.25 22.4643 7.52 22.4643 11.69V12.63C22.4643 13.04 22.1243 13.38 21.7143 13.38C20.8343 13.38 20.1143 14.1 20.1143 14.98C20.1143 15.86 20.8343 16.57 21.7143 16.57C22.1243 16.57 22.4643 16.91 22.4643 17.32C22.4543 21.48 21.1843 22.75 17.0243 22.75ZM3.71435 17.51C3.73435 20.69 4.36435 21.25 7.65435 21.25H17.0343C20.1543 21.25 20.8743 20.74 20.9643 17.97C20.2964 17.8011 19.7037 17.4145 19.28 16.8712C18.8562 16.3279 18.6255 15.659 18.6243 14.97C18.6243 13.52 19.6243 12.3 20.9743 11.96V11.68C20.9743 8.33 20.3843 7.74 17.0343 7.74H7.64435C4.36435 7.74 3.73435 8.31 3.70435 11.48C4.37497 11.649 4.97013 12.0367 5.39572 12.5818C5.82132 13.127 6.05308 13.7984 6.05435 14.49C6.05435 15.94 5.05435 17.17 3.71435 17.51Z" fill="#F06022"/>
<path d="M10.3334 10.25C9.92337 10.25 9.58337 9.91 9.58337 9.5V7C9.58337 6.59 9.92337 6.25 10.3334 6.25C10.7434 6.25 11.0834 6.59 11.0834 7V9.5C11.0834 9.91 10.7434 10.25 10.3334 10.25ZM10.3334 16.92C9.92337 16.92 9.58337 16.58 9.58337 16.17V12.84C9.58337 12.43 9.92337 12.09 10.3334 12.09C10.7434 12.09 11.0834 12.43 11.0834 12.84V16.17C11.0834 16.58 10.7434 16.92 10.3334 16.92ZM10.3334 22.75C9.92337 22.75 9.58337 22.41 9.58337 22V19.5C9.58337 19.09 9.92337 18.75 10.3334 18.75C10.7434 18.75 11.0834 19.09 11.0834 19.5V22C11.0834 22.41 10.7434 22.75 10.3334 22.75Z" fill="#F06022"/>
<path d="M16.6634 7.75H7.57341C7.42561 7.751 7.2809 7.70772 7.15792 7.62573C7.03494 7.54375 6.93933 7.42681 6.88341 7.29C6.8286 7.15237 6.81453 7.00188 6.8429 6.85649C6.87127 6.71109 6.94088 6.57692 7.04341 6.47L9.97341 3.54C12.6734 0.839999 14.3234 0.839999 17.0134 3.54L17.6134 4.14C17.7539 4.28062 17.8328 4.47125 17.8328 4.67C17.8328 4.86875 17.7539 5.05937 17.6134 5.2C17.2134 5.6 17.1034 6.19 17.3334 6.7C17.4434 6.93 17.4234 7.2 17.2834 7.42C17.2149 7.52143 17.1225 7.60454 17.0144 7.66206C16.9064 7.71958 16.7858 7.74978 16.6634 7.75ZM9.38341 6.25H15.7134C15.6934 5.72 15.8234 5.19 16.0934 4.73L15.9634 4.6C13.8734 2.51 13.1334 2.51 11.0434 4.6L9.38341 6.25Z" fill="#F06022"/>
</svg>
