<svg width="40" height="40" viewBox="0 0 40 40" fill="none" xmlns="http://www.w3.org/2000/svg">
<circle cx="20" cy="20" r="19.5" stroke="#E4E4E4"/>
<path fill-rule="evenodd" clip-rule="evenodd" d="M21.7988 26.4439C21.9407 26.5858 22.1205 26.652 22.3002 26.652C22.48 26.652 22.6597 26.5858 22.8017 26.4439L28.5443 20.7012C28.8187 20.4269 28.8187 19.9728 28.5443 19.6984L22.8017 13.9558C22.5273 13.6814 22.0732 13.6814 21.7988 13.9558C21.6669 14.0893 21.5929 14.2695 21.5929 14.4572C21.5929 14.6449 21.6669 14.8251 21.7988 14.9586L26.3305 19.4903H11.9596C11.5717 19.4903 11.25 19.8119 11.25 20.1998C11.25 20.5877 11.5717 20.9094 11.9596 20.9094H26.3305L21.7988 25.4411C21.6669 25.5746 21.5929 25.7547 21.5929 25.9425C21.5929 26.1302 21.6669 26.3104 21.7988 26.4439Z" fill="#282828"/>
</svg>
