<svg width="88" height="88" viewBox="0 0 88 88" fill="none" xmlns="http://www.w3.org/2000/svg">
<g filter="url(#filter0_d_20_215)">
<circle cx="42" cy="42" r="20" transform="rotate(-180 42 42)" fill="white"/>
</g>
<path fill-rule="evenodd" clip-rule="evenodd" d="M40.2012 35.5561C40.0593 35.4142 39.8795 35.348 39.6998 35.348C39.52 35.348 39.3403 35.4142 39.1983 35.5561L33.4557 41.2987C33.1813 41.5731 33.1813 42.0272 33.4557 42.3016L39.1983 48.0442C39.4727 48.3186 39.9268 48.3186 40.2012 48.0442C40.3331 47.9107 40.4071 47.7305 40.4071 47.5428C40.4071 47.3551 40.3331 47.1749 40.2012 47.0414L35.6695 42.5097L50.0404 42.5097C50.4283 42.5097 50.75 42.1881 50.75 41.8002C50.75 41.4123 50.4283 41.0906 50.0404 41.0906L35.6695 41.0906L40.2012 36.5589C40.3331 36.4254 40.4071 36.2453 40.4071 36.0575C40.4071 35.8698 40.3331 35.6896 40.2012 35.5561Z" fill="#282828"/>
<defs>
<filter id="filter0_d_20_215" x="0" y="0" width="88" height="88" filterUnits="userSpaceOnUse" color-interpolation-filters="sRGB">
<feFlood flood-opacity="0" result="BackgroundImageFix"/>
<feColorMatrix in="SourceAlpha" type="matrix" values="0 0 0 0 0 0 0 0 0 0 0 0 0 0 0 0 0 0 127 0" result="hardAlpha"/>
<feOffset dx="2" dy="2"/>
<feGaussianBlur stdDeviation="12"/>
<feComposite in2="hardAlpha" operator="out"/>
<feColorMatrix type="matrix" values="0 0 0 0 0.120833 0 0 0 0 0.120833 0 0 0 0 0.120833 0 0 0 0.15 0"/>
<feBlend mode="normal" in2="BackgroundImageFix" result="effect1_dropShadow_20_215"/>
<feBlend mode="normal" in="SourceGraphic" in2="effect1_dropShadow_20_215" result="shape"/>
</filter>
</defs>
</svg>
