<svg width="20" height="18" viewBox="0 0 20 18" fill="none" xmlns="http://www.w3.org/2000/svg">
<path d="M14.649 0.859863H7.90902V3.87986C7.90902 4.26986 7.58902 4.57986 7.20902 4.57986C6.82902 4.57986 6.50902 4.26986 6.50902 3.87986V0.859863H5.34902C1.39902 0.859863 0.099019 2.03986 0.00901903 5.72986C-0.000980967 5.90986 0.0790191 6.09986 0.209019 6.22986C0.339019 6.36986 0.509019 6.43986 0.709019 6.43986C2.10902 6.43986 3.25902 7.59986 3.25902 8.99986C3.25902 10.3999 2.10902 11.5599 0.709019 11.5599C0.519019 11.5599 0.339019 11.6299 0.209019 11.7699C0.0790191 11.8999 -0.000980967 12.0899 0.00901903 12.2699C0.099019 15.9599 1.39902 17.1399 5.34902 17.1399H6.50902V14.1199C6.50902 13.7299 6.82902 13.4199 7.20902 13.4199C7.58902 13.4199 7.90902 13.7299 7.90902 14.1199V17.1399H14.649C18.749 17.1399 19.999 15.8899 19.999 11.7899V6.20986C19.999 2.10986 18.749 0.859863 14.649 0.859863ZM16.469 8.89986L15.539 9.79986C15.499 9.82986 15.489 9.88986 15.499 9.93986L15.719 11.2099C15.759 11.4399 15.669 11.6799 15.469 11.8199C15.279 11.9599 15.029 11.9799 14.819 11.8699L13.669 11.2699C13.647 11.2599 13.6232 11.2548 13.599 11.2548C13.5749 11.2548 13.551 11.2599 13.529 11.2699L12.379 11.8699C12.289 11.9199 12.189 11.9399 12.089 11.9399C11.9986 11.939 11.9094 11.9185 11.8276 11.8798C11.7459 11.8411 11.6735 11.7851 11.6155 11.7157C11.5575 11.6462 11.5153 11.5651 11.4917 11.4778C11.4682 11.3904 11.4638 11.299 11.479 11.2099L11.699 9.93986C11.7025 9.91503 11.7007 9.88975 11.6938 9.86564C11.6869 9.84153 11.6751 9.81913 11.659 9.79986L10.729 8.89986C10.6463 8.82021 10.5874 8.71901 10.5592 8.60769C10.5309 8.49636 10.5343 8.37935 10.569 8.26986C10.6018 8.15841 10.6667 8.0591 10.7556 7.98439C10.8446 7.90967 10.9536 7.86287 11.069 7.84986L12.349 7.65986C12.3976 7.64905 12.4404 7.62053 12.469 7.57986L13.039 6.41986C13.149 6.20986 13.359 6.07986 13.599 6.07986C13.7136 6.0781 13.8263 6.10918 13.9237 6.16944C14.0212 6.22969 14.0994 6.31659 14.149 6.41986L14.719 7.57986C14.739 7.62986 14.779 7.65986 14.829 7.65986L16.109 7.84986C16.349 7.87986 16.539 8.04986 16.609 8.26986C16.699 8.48986 16.639 8.72986 16.469 8.89986Z" fill="#F06022"/>
</svg>
