<svg width="437" height="172" viewBox="0 0 437 172" fill="none" xmlns="http://www.w3.org/2000/svg">
<path d="M77.0735 169.316V132.635H0.5V107.137L75.2823 2.684H107.076V107.137H131.481V132.635H107.076V169.316H77.0735ZM22.8899 118.096L17.5163 107.137H77.0735V26.6164L84.91 29.0767L22.8899 118.096Z" fill="#F06022"/>
<path d="M218.197 172C204.912 172 193.269 168.421 183.268 161.264C173.267 154.107 165.431 144.042 159.759 131.069C154.236 118.096 151.475 103.036 151.475 85.8882C151.475 68.5912 154.236 53.531 159.759 40.7074C165.282 27.8838 173.044 17.8934 183.044 10.736C193.045 3.57867 204.688 0 217.973 0C231.556 0 243.273 3.57867 253.125 10.736C263.126 17.8934 270.962 27.9584 276.634 40.9311C282.306 53.7547 285.142 68.7403 285.142 85.8882C285.142 103.036 282.306 118.096 276.634 131.069C271.111 143.893 263.35 153.958 253.349 161.264C243.348 168.421 231.63 172 218.197 172ZM218.42 144.265C226.033 144.265 232.526 141.954 237.9 137.332C243.273 132.56 247.378 125.85 250.214 117.202C253.199 108.404 254.692 97.9662 254.692 85.8882C254.692 73.8101 253.199 63.4469 250.214 54.7984C247.378 46.0009 243.199 39.2908 237.676 34.6684C232.302 30.0459 225.734 27.7347 217.973 27.7347C210.509 27.7347 204.091 30.0459 198.717 34.6684C193.344 39.2908 189.164 46.0009 186.179 54.7984C183.343 63.4469 181.925 73.8101 181.925 85.8882C181.925 97.8171 183.343 108.18 186.179 116.978C189.164 125.626 193.344 132.336 198.717 137.108C204.24 141.88 210.808 144.265 218.42 144.265Z" fill="#F06022"/>
<path d="M382.092 169.316V132.635H305.519V107.137L380.301 2.684H412.095V107.137H436.5V132.635H412.095V169.316H382.092ZM327.909 118.096L322.535 107.137H382.092V26.6164L389.929 29.0767L327.909 118.096Z" fill="#F06022"/>
</svg>
