<svg width="9" height="18" viewBox="0 0 9 18" fill="none" xmlns="http://www.w3.org/2000/svg">
<path d="M8.80014 8.99978C8.80014 9.69978 8.53014 10.3998 8.00014 10.9298L1.48014 17.4498C1.339 17.5893 1.14857 17.6675 0.950136 17.6675C0.751706 17.6675 0.561275 17.5893 0.420137 17.4498C0.130137 17.1598 0.130137 16.6798 0.420137 16.3898L6.94014 9.86978C7.42014 9.38978 7.42014 8.60978 6.94014 8.12978L0.420136 1.60978C0.130136 1.31978 0.130136 0.839779 0.420136 0.549778C0.710136 0.259777 1.19014 0.259777 1.48014 0.549778L8.00014 7.06978C8.53014 7.59978 8.80014 8.29978 8.80014 8.99978Z" fill="#919192"/>
</svg>
