<svg width="24" height="24" viewBox="0 0 24 24" fill="none" xmlns="http://www.w3.org/2000/svg">
<path d="M9.57014 18.82C9.38014 18.82 9.19014 18.75 9.04014 18.6L2.97014 12.53C2.83066 12.3889 2.75244 12.1984 2.75244 12C2.75244 11.8016 2.83066 11.6111 2.97014 11.47L9.04014 5.4C9.33014 5.11 9.81014 5.11 10.1001 5.4C10.3901 5.69 10.3901 6.17 10.1001 6.46L4.56014 12L10.1001 17.54C10.3901 17.83 10.3901 18.31 10.1001 18.6C9.96014 18.75 9.76014 18.82 9.57014 18.82Z" fill="#F06022"/>
<path d="M20.4999 12.75H3.66992C3.25992 12.75 2.91992 12.41 2.91992 12C2.91992 11.59 3.25992 11.25 3.66992 11.25H20.4999C20.9099 11.25 21.2499 11.59 21.2499 12C21.2499 12.41 20.9099 12.75 20.4999 12.75Z" fill="#F06022"/>
</svg>
