<svg width="14" height="12" viewBox="0 0 14 12" fill="none" xmlns="http://www.w3.org/2000/svg">
<path d="M4.33325 3.83331C4.05992 3.83331 3.83325 3.60665 3.83325 3.33331V1.33331C3.83325 1.05998 4.05992 0.833313 4.33325 0.833313C4.60659 0.833313 4.83325 1.05998 4.83325 1.33331V3.33331C4.83325 3.60665 4.60659 3.83331 4.33325 3.83331ZM9.66659 3.83331C9.39325 3.83331 9.16659 3.60665 9.16659 3.33331V1.33331C9.16659 1.05998 9.39325 0.833313 9.66659 0.833313C9.93992 0.833313 10.1666 1.05998 10.1666 1.33331V3.33331C10.1666 3.60665 9.93992 3.83331 9.66659 3.83331ZM4.66659 9.66531C4.57992 9.66531 4.49325 9.64531 4.41325 9.61198C4.32659 9.57865 4.25992 9.53198 4.19325 9.47198C4.07325 9.34531 3.99992 9.17865 3.99992 8.99865C3.99992 8.91198 4.01992 8.82531 4.05325 8.74531C4.08659 8.66531 4.13325 8.59198 4.19325 8.52531C4.25992 8.46531 4.32659 8.41865 4.41325 8.38531C4.65325 8.28531 4.95325 8.33865 5.13992 8.52531C5.25992 8.65198 5.33325 8.82531 5.33325 8.99865C5.33325 9.03865 5.32659 9.08531 5.31992 9.13198C5.31325 9.17198 5.29992 9.21198 5.27992 9.25198C5.26659 9.29198 5.24659 9.33198 5.21992 9.37198C5.19992 9.40531 5.16659 9.43865 5.13992 9.47198C5.01325 9.59198 4.83992 9.66531 4.66659 9.66531ZM6.99992 9.66598C6.91325 9.66598 6.82659 9.64598 6.74659 9.61265C6.65992 9.57931 6.59325 9.53265 6.52659 9.47265C6.40659 9.34598 6.33325 9.17931 6.33325 8.99931C6.33325 8.91265 6.35325 8.82598 6.38659 8.74598C6.41992 8.66598 6.46659 8.59265 6.52659 8.52598C6.59325 8.46598 6.65992 8.41931 6.74659 8.38598C6.98659 8.27931 7.28659 8.33931 7.47325 8.52598C7.59325 8.65265 7.66659 8.82598 7.66659 8.99931C7.66659 9.03931 7.65992 9.08598 7.65325 9.13265C7.64658 9.17265 7.63325 9.21265 7.61325 9.25265C7.59992 9.29265 7.57992 9.33265 7.55325 9.37265C7.53325 9.40598 7.49992 9.43931 7.47325 9.47265C7.34659 9.59265 7.17325 9.66598 6.99992 9.66598ZM9.33325 9.66598C9.24659 9.66598 9.15992 9.64598 9.07992 9.61265C8.99325 9.57931 8.92659 9.53265 8.85992 9.47265L8.77992 9.37265C8.75467 9.33549 8.73449 9.29514 8.71992 9.25265C8.70066 9.21487 8.68718 9.17442 8.67992 9.13265C8.67325 9.08598 8.66659 9.03931 8.66659 8.99931C8.66659 8.82598 8.73992 8.65265 8.85992 8.52598C8.92659 8.46598 8.99325 8.41931 9.07992 8.38598C9.32659 8.27931 9.61992 8.33931 9.80659 8.52598C9.92659 8.65265 9.99992 8.82598 9.99992 8.99931C9.99992 9.03931 9.99325 9.08598 9.98659 9.13265C9.97992 9.17265 9.96659 9.21265 9.94659 9.25265C9.93325 9.29265 9.91325 9.33265 9.88659 9.37265C9.86659 9.40598 9.83325 9.43931 9.80659 9.47265C9.67992 9.59265 9.50659 9.66598 9.33325 9.66598ZM4.66659 12C4.57992 12 4.49325 11.98 4.41325 11.9466C4.33325 11.9133 4.25992 11.8666 4.19325 11.8066C4.07325 11.68 3.99992 11.5066 3.99992 11.3333C3.99992 11.2466 4.01992 11.16 4.05325 11.08C4.08659 10.9933 4.13325 10.92 4.19325 10.86C4.43992 10.6133 4.89325 10.6133 5.13992 10.86C5.25992 10.9866 5.33325 11.16 5.33325 11.3333C5.33325 11.5066 5.25992 11.68 5.13992 11.8066C5.01325 11.9266 4.83992 12 4.66659 12ZM6.99992 12C6.82659 12 6.65325 11.9266 6.52659 11.8066C6.40659 11.68 6.33325 11.5066 6.33325 11.3333C6.33325 11.2466 6.35325 11.16 6.38659 11.08C6.41992 10.9933 6.46659 10.92 6.52659 10.86C6.77325 10.6133 7.22659 10.6133 7.47325 10.86C7.53325 10.92 7.57992 10.9933 7.61325 11.08C7.64659 11.16 7.66659 11.2466 7.66659 11.3333C7.66659 11.5066 7.59325 11.68 7.47325 11.8066C7.34659 11.9266 7.17325 12 6.99992 12ZM9.33325 12C9.15992 12 8.98659 11.9266 8.85992 11.8066C8.79823 11.744 8.75052 11.669 8.71992 11.5866C8.68568 11.5065 8.66755 11.4204 8.66659 11.3333C8.66659 11.2466 8.68659 11.16 8.71992 11.08C8.75325 10.9933 8.79992 10.92 8.85992 10.86C9.01325 10.7066 9.24658 10.6333 9.45992 10.68C9.50659 10.6866 9.54659 10.7 9.58659 10.72C9.62659 10.7333 9.66658 10.7533 9.70658 10.78C9.73992 10.8 9.77325 10.8333 9.80659 10.86C9.92659 10.9866 9.99992 11.16 9.99992 11.3333C9.99992 11.5066 9.92659 11.68 9.80659 11.8066C9.67992 11.9266 9.50659 12 9.33325 12ZM12.6666 6.55998H1.33325C1.05992 6.55998 0.833252 6.33331 0.833252 6.05998C0.833252 5.78665 1.05992 5.55998 1.33325 5.55998H12.6666C12.9399 5.55998 13.1666 5.78665 13.1666 6.05998C13.1666 6.33331 12.9399 6.55998 12.6666 6.55998Z" fill="#919192"/>
</svg>
