<svg width="32" height="32" viewBox="0 0 32 32" fill="none" xmlns="http://www.w3.org/2000/svg">
<path d="M23.2667 30.3327C21.76 30.3327 20.1734 29.9727 18.5334 29.2793C16.9334 28.5993 15.32 27.666 13.7467 26.5327C12.1867 25.386 10.68 24.106 9.25335 22.706C7.84002 21.2793 6.56002 19.7727 5.42669 18.226C4.28002 16.626 3.36002 15.026 2.70669 13.4793C2.01335 11.826 1.66669 10.226 1.66669 8.71935C1.66669 7.67935 1.85335 6.69268 2.21335 5.77268C2.58669 4.82602 3.18669 3.94602 4.00002 3.18602C5.02669 2.17268 6.20002 1.66602 7.45335 1.66602C7.97335 1.66602 8.50669 1.78602 8.96002 1.99935C9.48002 2.23935 9.92002 2.59935 10.24 3.07935L13.3334 7.43935C13.6134 7.82601 13.8267 8.19935 13.9734 8.57268C14.1467 8.97268 14.24 9.37268 14.24 9.75935C14.24 10.266 14.0934 10.7593 13.8134 11.226C13.5683 11.6425 13.2678 12.0238 12.92 12.3593L12.0134 13.306C12.0267 13.346 12.04 13.3727 12.0534 13.3993C12.2134 13.6793 12.5334 14.1593 13.1467 14.8793C13.8 15.626 14.4134 16.306 15.0267 16.9327C15.8134 17.706 16.4667 18.3193 17.08 18.826C17.84 19.466 18.3334 19.786 18.6267 19.9327L18.6 19.9993L19.5734 19.0393C19.9867 18.626 20.3867 18.3193 20.7734 18.1193C21.5067 17.666 22.44 17.586 23.3734 17.9727C23.72 18.1193 24.0934 18.3193 24.4934 18.5993L28.92 21.746C29.4134 22.0793 29.7734 22.506 29.9867 23.0127C30.1867 23.5193 30.28 23.986 30.28 24.4527C30.28 25.0927 30.1334 25.7327 29.8534 26.3327C29.5734 26.9327 29.2267 27.4527 28.7867 27.9327C28.0267 28.7727 27.2 29.3727 26.24 29.7593C25.32 30.1327 24.32 30.3327 23.2667 30.3327ZM7.45335 3.66602C6.72002 3.66602 6.04002 3.98602 5.38669 4.62602C4.77335 5.19935 4.34669 5.82602 4.08002 6.50602C3.80002 7.19935 3.66669 7.93268 3.66669 8.71935C3.66669 9.95935 3.96002 11.306 4.54669 12.6927C5.14669 14.106 5.98669 15.5727 7.05335 17.0393C8.12002 18.506 9.33335 19.9327 10.6667 21.2793C12 22.5993 13.44 23.826 14.92 24.906C16.36 25.9593 17.84 26.8127 19.3067 27.426C21.5867 28.3993 23.72 28.626 25.48 27.8927C26.16 27.6127 26.76 27.186 27.3067 26.5727C27.6134 26.2393 27.8534 25.8793 28.0534 25.4527C28.2134 25.1193 28.2934 24.7727 28.2934 24.426C28.2934 24.2127 28.2534 23.9993 28.1467 23.7593C28.0614 23.5942 27.9323 23.4558 27.7734 23.3593L23.3467 20.2127C23.08 20.026 22.84 19.8927 22.6134 19.7993C22.32 19.6793 22.2 19.5593 21.7467 19.8393C21.48 19.9727 21.24 20.1727 20.9734 20.4393L19.96 21.4393C19.44 21.946 18.64 22.066 18.0267 21.8393L17.6667 21.6793C17.12 21.386 16.48 20.9327 15.7734 20.3327C15.1334 19.786 14.44 19.146 13.6 18.3193C12.9467 17.6527 12.2934 16.946 11.6134 16.1593C10.9867 15.426 10.5334 14.7993 10.2534 14.2793L10.0934 13.8793C10.0134 13.5727 9.98669 13.3993 9.98669 13.2127C9.98669 12.7327 10.16 12.306 10.4934 11.9727L11.4934 10.9327C11.76 10.666 11.96 10.4127 12.0934 10.186C12.2 10.0127 12.24 9.86602 12.24 9.73268C12.24 9.62602 12.2 9.46602 12.1334 9.30602C12.04 9.09268 11.8934 8.85268 11.7067 8.59935L8.61335 4.22602C8.48853 4.04687 8.31825 3.9042 8.12002 3.81268C7.90669 3.71935 7.68002 3.66602 7.45335 3.66602ZM18.6 20.0127L18.3867 20.9193L18.7467 19.986C18.68 19.9727 18.6267 19.986 18.6 20.0127Z" fill="#F06022"/>
</svg>
