<svg width="25" height="24" viewBox="0 0 25 24" fill="none" xmlns="http://www.w3.org/2000/svg">
<path d="M22.6667 22.75H5.66675C3.59675 22.75 1.91675 21.07 1.91675 19V2C1.91675 1.59 2.25675 1.25 2.66675 1.25C3.07675 1.25 3.41675 1.59 3.41675 2V19C3.41675 20.24 4.42675 21.25 5.66675 21.25H22.6667C23.0767 21.25 23.4167 21.59 23.4167 22C23.4167 22.41 23.0767 22.75 22.6667 22.75Z" fill="#F06022"/>
<path d="M5.66678 17.75C5.49678 17.75 5.31678 17.69 5.17678 17.57C5.02661 17.4394 4.93399 17.2549 4.91902 17.0564C4.90404 16.858 4.96791 16.6617 5.09678 16.51L9.68678 11.15C10.1868 10.57 10.9068 10.22 11.6668 10.19C12.4268 10.17 13.1768 10.45 13.7168 10.99L14.6668 11.94C14.9168 12.19 15.2468 12.31 15.5968 12.31C15.9468 12.3 16.2668 12.14 16.4968 11.87L21.0868 6.51001C21.3568 6.20001 21.8268 6.16001 22.1468 6.43001C22.4568 6.70001 22.4968 7.17001 22.2268 7.49001L17.6368 12.85C17.1368 13.43 16.4168 13.78 15.6568 13.81C14.8968 13.83 14.1468 13.55 13.6068 13.01L12.6668 12.06C12.4168 11.81 12.0868 11.68 11.7368 11.69C11.3868 11.7 11.0668 11.86 10.8368 12.13L6.24678 17.49C6.17299 17.5707 6.08346 17.6354 5.98371 17.6801C5.88395 17.7248 5.77609 17.7486 5.66678 17.75Z" fill="#F06022"/>
</svg>
