<svg width="28" height="27" viewBox="0 0 28 27" fill="none" xmlns="http://www.w3.org/2000/svg">
<path d="M14.1667 24.4444C20.3033 24.4444 25.2778 19.4699 25.2778 13.3333C25.2778 7.19661 20.3033 2.22217 14.1667 2.22217C8.02999 2.22217 3.05554 7.19661 3.05554 13.3333C3.05554 19.4699 8.02999 24.4444 14.1667 24.4444Z" fill="#DB3B1B"/>
<path d="M15.3444 13.3334L17.9 10.7778C18.2222 10.4556 18.2222 9.92227 17.9 9.60005C17.7432 9.44507 17.5316 9.35815 17.3111 9.35815C17.0906 9.35815 16.879 9.44507 16.7222 9.60005L14.1666 12.1556L11.6111 9.60005C11.4543 9.44507 11.2427 9.35815 11.0222 9.35815C10.8017 9.35815 10.5901 9.44507 10.4333 9.60005C10.1111 9.92227 10.1111 10.4556 10.4333 10.7778L12.9889 13.3334L10.4333 15.8889C10.1111 16.2112 10.1111 16.7445 10.4333 17.0667C10.6 17.2334 10.8111 17.3112 11.0222 17.3112C11.2333 17.3112 11.4444 17.2334 11.6111 17.0667L14.1666 14.5112L16.7222 17.0667C16.8889 17.2334 17.1 17.3112 17.3111 17.3112C17.5222 17.3112 17.7333 17.2334 17.9 17.0667C18.2222 16.7445 18.2222 16.2112 17.9 15.8889L15.3444 13.3334Z" fill="white"/>
</svg>
