<svg width="25" height="24" viewBox="0 0 25 24" fill="none" xmlns="http://www.w3.org/2000/svg">
<path d="M6.03999 19.5201C5.42999 19.5201 4.85999 19.31 4.44999 18.92C3.92999 18.43 3.67999 17.69 3.76999 16.89L4.13999 13.65C4.20999 13.04 4.57999 12.23 5.00999 11.79L13.22 3.10005C15.27 0.930049 17.41 0.870049 19.58 2.92005C21.75 4.97005 21.81 7.11005 19.76 9.28005L11.55 17.97C11.13 18.42 10.35 18.84 9.73999 18.9401L6.51999 19.49C6.34999 19.5 6.19999 19.5201 6.03999 19.5201ZM16.43 2.91005C15.66 2.91005 14.99 3.39005 14.31 4.11005L6.09999 12.8101C5.89999 13.0201 5.66999 13.5201 5.62999 13.8101L5.25999 17.05C5.21999 17.38 5.29999 17.65 5.47999 17.82C5.65999 17.99 5.92999 18.05 6.25999 18L9.47999 17.4501C9.76999 17.4001 10.25 17.14 10.45 16.93L18.66 8.24005C19.9 6.92005 20.35 5.70005 18.54 4.00005C17.74 3.23005 17.05 2.91005 16.43 2.91005Z" fill="#007BD8"/>
<path d="M17.84 10.949H17.77C16.2545 10.8004 14.8315 10.1517 13.7253 9.10522C12.6191 8.05873 11.8925 6.67393 11.66 5.169C11.6 4.759 11.88 4.37899 12.29 4.30899C12.7 4.24899 13.08 4.529 13.15 4.939C13.3331 6.11564 13.902 7.1981 14.7672 8.01627C15.6324 8.83443 16.745 9.34193 17.93 9.45899C18.34 9.49899 18.64 9.869 18.6 10.279C18.55 10.659 18.22 10.949 17.84 10.949ZM21.5 22.75H3.5C3.09 22.75 2.75 22.41 2.75 22C2.75 21.59 3.09 21.25 3.5 21.25H21.5C21.91 21.25 22.25 21.59 22.25 22C22.25 22.41 21.91 22.75 21.5 22.75Z" fill="#007BD8"/>
</svg>
