<svg width="16" height="16" viewBox="0 0 16 16" fill="none" xmlns="http://www.w3.org/2000/svg">
<g clip-path="url(#clip0_204_5233)">
<path d="M7.99998 15.1668C4.04665 15.1668 0.833313 11.9535 0.833313 8.00016C0.833313 4.04683 4.04665 0.833496 7.99998 0.833496C11.9533 0.833496 15.1666 4.04683 15.1666 8.00016C15.1666 11.9535 11.9533 15.1668 7.99998 15.1668ZM7.99998 1.8335C4.59998 1.8335 1.83331 4.60016 1.83331 8.00016C1.83331 11.4002 4.59998 14.1668 7.99998 14.1668C11.4 14.1668 14.1666 11.4002 14.1666 8.00016C14.1666 4.60016 11.4 1.8335 7.99998 1.8335Z" fill="#919192"/>
<path d="M10.4733 10.6211C10.3834 10.6228 10.2951 10.5972 10.22 10.5478L8.15334 9.31448C7.64001 9.00781 7.26001 8.33448 7.26001 7.74115V5.00781C7.26001 4.73448 7.48668 4.50781 7.76001 4.50781C8.03334 4.50781 8.26001 4.73448 8.26001 5.00781V7.74115C8.26001 7.98115 8.46001 8.33448 8.66668 8.45448L10.7333 9.68781C10.9733 9.82781 11.0467 10.1345 10.9067 10.3745C10.8614 10.449 10.7978 10.5108 10.722 10.554C10.6462 10.5971 10.5606 10.6202 10.4733 10.6211Z" fill="#919192"/>
</g>
<defs>
<clipPath id="clip0_204_5233">
<rect width="16" height="16" fill="white"/>
</clipPath>
</defs>
</svg>
