<svg width="243" height="243" viewBox="0 0 243 243" fill="none" xmlns="http://www.w3.org/2000/svg">
<path d="M12.4985 0L0.25 12.2401L21.8271 49.5292L35.8201 47.4783L121.233 132.842L113.947 139.834C110.216 143.563 110.216 149.212 113.947 152.941L117.735 156.735C121.466 160.464 127.175 160.464 129.974 156.735L141.057 167.801C140.124 173.394 141.057 180.041 145.721 184.702L196.151 234.809C206.413 245.064 223.205 245.064 233.466 234.809C245.593 223.622 245.481 206.898 235.22 196.644L185.078 146.238C180.414 141.577 173.763 139.713 168.166 141.577L155.917 130.512C158.716 126.783 158.716 121.078 155.917 118.272L152.419 114.785C151.571 113.901 150.553 113.198 149.426 112.718C148.299 112.237 147.086 111.99 145.861 111.99C144.636 111.99 143.423 112.237 142.296 112.718C141.169 113.198 140.151 113.901 139.303 114.785L133.183 120.9L47.7701 35.5458L49.8037 21.5624L12.4985 0ZM194.407 0.28899C176.002 -1.23986 151.598 10.9537 140.18 21.5531C126.131 35.5924 128.426 53.9479 139.592 71.6695L119.778 91.4794L133.771 107.206C141.234 100.68 152.242 100.68 159.704 107.206L163.501 110.991L164.378 111.867L172.541 103.71C189.407 113.62 206.963 115.046 220.35 101.669C233.41 89.5497 247.571 59.6625 241.041 41.9502L214.809 69.0407C211.077 72.7696 205.424 72.7696 201.693 69.0407L174.574 41.9502C173.69 41.1027 172.986 40.0853 172.506 38.959C172.025 37.8328 171.777 36.621 171.777 35.3966C171.777 34.1722 172.025 32.9605 172.506 31.8342C172.986 30.708 173.69 29.6905 174.574 28.8431L201.702 1.75259C199.37 0.932226 197.038 0.512724 194.407 0.28899ZM91.792 116.528L57.9663 150.321C54.3315 149.514 50.6165 149.124 46.8932 149.156C20.773 149.156 0.25 169.665 0.25 195.768C0.25 221.87 20.773 242.379 46.8932 242.379C73.0134 242.379 93.5364 221.87 93.5364 195.768C93.5364 190.985 92.7808 186.389 91.4934 182.073L111.317 162.263L108.406 158.478C100.943 151.021 100.999 139.722 107.529 132.255L91.792 116.528ZM164.089 159.066C165.255 159.066 166.356 159.289 167.289 160.231L222.393 215.288C224.259 217.153 224.259 220.117 222.393 221.982C220.527 223.846 217.542 223.846 215.676 221.982L160.591 166.924C158.725 165.06 158.725 162.095 160.591 160.231C161.524 159.299 162.923 159.066 164.089 159.066ZM53.3113 171.576L71.0917 189.354L64.6736 213.526L40.4844 219.94L22.6947 202.163L29.1128 177.99L53.3113 171.576Z" fill="#F06022"/>
</svg>
