<svg width="48" height="48" viewBox="0 0 48 48" fill="none" xmlns="http://www.w3.org/2000/svg">
<path d="M35.1998 0.666504H29.1332C21.6665 0.666504 16.9998 5.33317 16.9998 12.7998V22.2498H27.3598L22.5298 17.4198C22.3665 17.2581 22.2369 17.0655 22.1488 16.8531C22.0606 16.6408 22.0157 16.4131 22.0165 16.1832C22.0165 15.7398 22.1798 15.2965 22.5298 14.9465C23.2065 14.2698 24.3265 14.2698 25.0032 14.9465L32.8198 22.7632C33.4965 23.4398 33.4965 24.5598 32.8198 25.2365L25.0032 33.0532C24.3265 33.7298 23.2065 33.7298 22.5298 33.0532C22.2044 32.7239 22.0219 32.2795 22.0219 31.8165C22.0219 31.3535 22.2044 30.9092 22.5298 30.5798L27.3598 25.7498H16.9998V35.1998C16.9998 42.6665 21.6665 47.3332 29.1332 47.3332H35.1765C42.6432 47.3332 47.3098 42.6665 47.3098 35.1998V12.7998C47.3332 5.33317 42.6665 0.666504 35.1998 0.666504ZM2.4165 22.2498C1.45984 22.2498 0.666504 23.0432 0.666504 23.9998C0.666504 24.9565 1.45984 25.7498 2.4165 25.7498H16.9998V22.2498H2.4165Z" fill="#F5956C"/>
</svg>
