<svg width="24" height="24" viewBox="0 0 24 24" fill="none" xmlns="http://www.w3.org/2000/svg">
<path d="M12.002 16.3319C9.612 16.3319 7.672 14.3919 7.672 12.0019C7.672 9.61187 9.612 7.67188 12.002 7.67188C14.392 7.67188 16.332 9.61187 16.332 12.0019C16.332 14.3919 14.392 16.3319 12.002 16.3319ZM12.002 9.17188C10.442 9.17188 9.172 10.4419 9.172 12.0019C9.172 13.5619 10.442 14.8319 12.002 14.8319C13.562 14.8319 14.832 13.5619 14.832 12.0019C14.832 10.4419 13.562 9.17188 12.002 9.17188Z" fill="#F06022"/>
<path d="M11.998 21.0205C8.238 21.0205 4.688 18.8205 2.248 15.0005C1.188 13.3505 1.188 10.6605 2.248 9.00047C4.698 5.18047 8.248 2.98047 11.998 2.98047C15.748 2.98047 19.298 5.18047 21.738 9.00047C22.798 10.6505 22.798 13.3405 21.738 15.0005C19.298 18.8205 15.748 21.0205 11.998 21.0205ZM11.998 4.48047C8.768 4.48047 5.678 6.42047 3.518 9.81047C2.768 10.9805 2.768 13.0205 3.518 14.1905C5.678 17.5805 8.768 19.5205 11.998 19.5205C15.228 19.5205 18.318 17.5805 20.478 14.1905C21.228 13.0205 21.228 10.9805 20.478 9.81047C18.318 6.42047 15.228 4.48047 11.998 4.48047Z" fill="#F06022"/>
</svg>
