<svg width="24" height="24" viewBox="0 0 24 24" fill="none" xmlns="http://www.w3.org/2000/svg">
<path d="M14.89 18.222H6.09995C5.57995 18.222 5.08995 18.172 4.64995 18.072C4.37595 18.0285 4.10763 17.9547 3.84995 17.852C2.51995 17.352 0.949951 16.122 0.949951 13.062V7.91196C0.949951 4.64196 2.82995 2.76196 6.09995 2.76196H14.89C17.65 2.76196 19.43 4.08196 19.91 6.48196C20 6.92196 20.04 7.39196 20.04 7.91196V13.062C20.04 16.352 18.17 18.222 14.89 18.222ZM6.10995 4.28196C3.64995 4.28196 2.45995 5.47196 2.45995 7.93196V13.082C2.45995 14.872 3.08995 15.972 4.37995 16.462C4.57995 16.532 4.76995 16.582 4.94995 16.612C5.32995 16.692 5.69995 16.732 6.10995 16.732H14.9C17.36 16.732 18.5499 15.542 18.5499 13.082V7.93196C18.5499 7.51196 18.52 7.14196 18.45 6.80196C18.11 5.10196 16.95 4.28196 14.9 4.28196H6.10995Z" fill="#F06022"/>
<path d="M17.891 21.22H9.10098C8.25098 21.22 7.49098 21.1 6.84098 20.85C5.37098 20.3 4.41098 19.14 4.08098 17.48C4.05601 17.3581 4.06216 17.2319 4.09887 17.1131C4.13557 16.9942 4.20165 16.8865 4.29098 16.8C4.38 16.7117 4.49025 16.6479 4.6111 16.6146C4.73195 16.5813 4.85933 16.5797 4.98098 16.61C5.31098 16.68 5.68098 16.72 6.10098 16.72H14.891C17.351 16.72 18.541 15.53 18.541 13.07V7.91996C18.541 7.49996 18.511 7.12996 18.441 6.78996C18.391 6.53996 18.471 6.28996 18.641 6.10996C18.821 5.92996 19.071 5.84996 19.321 5.90996C21.721 6.39996 23.041 8.17996 23.041 10.92V16.07C23.041 19.35 21.171 21.22 17.891 21.22ZM5.92098 18.22C6.24098 18.8 6.72098 19.21 7.38098 19.45C7.86098 19.63 8.44098 19.72 9.11098 19.72H17.901C20.361 19.72 21.551 18.53 21.551 16.07V10.92C21.551 9.33996 21.061 8.28996 20.051 7.73996V13.07C20.051 16.34 18.171 18.22 14.901 18.22H5.92098Z" fill="#F06022"/>
<path d="M10.5 13.89C8.63001 13.89 7.11001 12.37 7.11001 10.5C7.11001 8.62999 8.63001 7.10999 10.5 7.10999C12.37 7.10999 13.89 8.62999 13.89 10.5C13.89 12.37 12.37 13.89 10.5 13.89ZM10.5 8.60998C9.46001 8.60998 8.61001 9.45999 8.61001 10.5C8.61001 11.54 9.46001 12.39 10.5 12.39C11.54 12.39 12.39 11.54 12.39 10.5C12.39 9.45999 11.54 8.60998 10.5 8.60998ZM4.78101 13.45C4.37101 13.45 4.03101 13.11 4.03101 12.7V8.29999C4.03101 7.88999 4.37101 7.54999 4.78101 7.54999C5.19101 7.54999 5.53101 7.88999 5.53101 8.29999V12.7C5.53101 13.11 5.20101 13.45 4.78101 13.45ZM16.21 13.45C15.8 13.45 15.46 13.11 15.46 12.7V8.29999C15.46 7.88999 15.8 7.54999 16.21 7.54999C16.62 7.54999 16.96 7.88999 16.96 8.29999V12.7C16.96 13.11 16.63 13.45 16.21 13.45Z" fill="#F06022"/>
</svg>
