<svg width="56" height="56" viewBox="0 0 56 56" fill="none" xmlns="http://www.w3.org/2000/svg">
<path d="M51.3333 28C51.3333 15.1433 40.8567 4.66667 28 4.66667C15.1433 4.66667 4.66666 15.1433 4.66666 28C4.66666 34.7667 7.58332 40.8567 12.2033 45.1267C12.2033 45.15 12.2033 45.15 12.18 45.1733C12.4133 45.4067 12.6933 45.5933 12.9267 45.8033C13.0667 45.92 13.1833 46.0367 13.3233 46.13C13.7433 46.48 14.21 46.8067 14.6533 47.1333L15.12 47.46C15.5633 47.7633 16.03 48.0433 16.52 48.3C16.6833 48.3933 16.87 48.51 17.0333 48.6033C17.5 48.86 17.99 49.0933 18.5033 49.3033C18.69 49.3967 18.8767 49.49 19.0633 49.56C19.5767 49.77 20.09 49.9567 20.6033 50.12C20.79 50.19 20.9767 50.26 21.1633 50.3067C21.7233 50.47 22.2833 50.61 22.8433 50.75C23.0067 50.7967 23.17 50.8433 23.3567 50.8667C24.01 51.0067 24.6633 51.1 25.34 51.17C25.4333 51.17 25.5267 51.1933 25.62 51.2167C26.4133 51.2867 27.2067 51.3333 28 51.3333C28.7933 51.3333 29.5867 51.2867 30.3567 51.2167C30.45 51.2167 30.5433 51.1933 30.6367 51.17C31.3133 51.1 31.9667 51.0067 32.62 50.8667C32.7833 50.8433 32.9467 50.7733 33.1333 50.75C33.6933 50.61 34.2767 50.4933 34.8133 50.3067C35 50.2367 35.1867 50.1667 35.3733 50.12C35.8867 49.9333 36.4233 49.77 36.9133 49.56C37.1 49.49 37.2867 49.3967 37.4733 49.3033C37.9633 49.0933 38.4533 48.86 38.9433 48.6033C39.13 48.51 39.2933 48.3933 39.4567 48.3C39.9233 48.02 40.39 47.7633 40.8567 47.46C41.02 47.3667 41.16 47.25 41.3233 47.1333C41.79 46.8067 42.2333 46.48 42.6533 46.13C42.7933 46.0133 42.91 45.8967 43.05 45.8033C43.3067 45.5933 43.5633 45.3833 43.7967 45.1733C43.7967 45.15 43.7967 45.15 43.7733 45.1267C48.4167 40.8567 51.3333 34.7667 51.3333 28ZM39.5267 39.5967C33.2033 35.35 22.8433 35.35 16.4733 39.5967C15.4467 40.2733 14.6067 41.0667 13.9067 41.93C10.2312 38.2253 8.16816 33.2186 8.16666 28C8.16666 17.0567 17.0567 8.16667 28 8.16667C38.9433 8.16667 47.8333 17.0567 47.8333 28C47.8333 33.4133 45.64 38.3367 42.0933 41.93C41.4167 41.0667 40.5533 40.2733 39.5267 39.5967Z" fill="#007BD8"/>
<path d="M28 16.17C23.17 16.17 19.25 20.09 19.25 24.92C19.25 29.6567 22.96 33.5067 27.8833 33.6467H28.3033C30.5683 33.5722 32.7157 32.6202 34.2918 30.9919C35.8679 29.3635 36.7494 27.1862 36.75 24.92C36.75 20.09 32.83 16.17 28 16.17Z" fill="#007BD8"/>
</svg>
