<svg width="25" height="24" viewBox="0 0 25 24" fill="none" xmlns="http://www.w3.org/2000/svg">
<path d="M17.3335 20.75H7.3335C2.9235 20.75 1.5835 19.41 1.5835 15V14.5C1.5835 14.09 1.9235 13.75 2.3335 13.75C3.2935 13.75 4.0835 12.96 4.0835 12C4.0835 11.04 3.2935 10.25 2.3335 10.25C1.9235 10.25 1.5835 9.91 1.5835 9.5V9C1.5835 4.59 2.9235 3.25 7.3335 3.25H17.3335C21.7435 3.25 23.0835 4.59 23.0835 9V10C23.0835 10.41 22.7435 10.75 22.3335 10.75C21.3735 10.75 20.5835 11.54 20.5835 12.5C20.5835 13.46 21.3735 14.25 22.3335 14.25C22.7435 14.25 23.0835 14.59 23.0835 15C23.0835 19.41 21.7435 20.75 17.3335 20.75ZM3.0835 15.16C3.1035 18.6 3.8135 19.25 7.3335 19.25H17.3335C20.6735 19.25 21.4835 18.66 21.5735 15.66C20.8639 15.4893 20.2325 15.0848 19.7808 14.5116C19.3291 13.9384 19.0835 13.2298 19.0835 12.5C19.0835 10.97 20.1535 9.68 21.5835 9.34V9C21.5835 5.43 20.9035 4.75 17.3335 4.75H7.3335C3.8135 4.75 3.1035 5.4 3.0835 8.84C4.5135 9.18 5.5835 10.47 5.5835 12C5.5835 13.53 4.5135 14.82 3.0835 15.16Z" fill="#F06022"/>
<path d="M15.3315 15.879C14.7715 15.879 14.3215 15.429 14.3215 14.879C14.3215 14.329 14.7715 13.879 15.3215 13.879C15.8715 13.879 16.3215 14.329 16.3215 14.879C16.3215 15.429 15.8915 15.879 15.3315 15.879ZM9.33152 10.879C8.77152 10.879 8.32152 10.429 8.32152 9.87901C8.32152 9.32901 8.77152 8.87901 9.32152 8.87901C9.87152 8.87901 10.3215 9.32901 10.3215 9.87901C10.3215 10.429 9.89152 10.879 9.33152 10.879ZM8.96352 16.43C8.77352 16.43 8.58352 16.36 8.43352 16.21C8.29404 16.0689 8.21582 15.8784 8.21582 15.68C8.21582 15.4816 8.29404 15.2912 8.43352 15.15L15.1635 8.42001C15.4535 8.13001 15.9335 8.13001 16.2235 8.42001C16.5135 8.71001 16.5135 9.19001 16.2235 9.48001L9.49352 16.21C9.35352 16.36 9.15352 16.43 8.96352 16.43Z" fill="#F06022"/>
</svg>
