<svg width="74" height="66" viewBox="0 0 74 66" fill="none" xmlns="http://www.w3.org/2000/svg">
<path d="M68.4645 53.2288V62.6722H5.50879V53.2288C5.50879 51.4976 6.92529 50.0811 8.65657 50.0811H65.3167C67.0479 50.0811 68.4645 51.4976 68.4645 53.2288Z" fill="#F06022" stroke="#F06022" stroke-width="1.5" stroke-miterlimit="10" stroke-linecap="round" stroke-linejoin="round"/>
<path opacity="0.6" d="M24.3953 28.0464H11.8042V50.0809H24.3953V28.0464Z" fill="#F06022"/>
<path opacity="0.4" d="M36.9866 28.0464H24.3955V50.0809H36.9866V28.0464Z" fill="#F06022"/>
<path opacity="0.6" d="M49.5779 28.0464H36.9868V50.0809H49.5779V28.0464Z" fill="#F06022"/>
<path opacity="0.4" d="M62.1688 28.0464H49.5776V50.0809H62.1688V28.0464Z" fill="#F06022"/>
<path d="M71.6121 65.0332H2.36084C1.07025 65.0332 0 63.963 0 62.6724C0 61.3818 1.07025 60.3115 2.36084 60.3115H71.6121C72.9027 60.3115 73.9729 61.3818 73.9729 62.6724C73.9729 63.963 72.9027 65.0332 71.6121 65.0332ZM66.4812 11.5209L38.1511 0.188867C37.5216 -0.0629557 36.4513 -0.0629557 35.8218 0.188867L7.49172 11.5209C6.39 11.9616 5.50862 13.2522 5.50862 14.4483V24.899C5.50862 26.6302 6.92512 28.0467 8.6564 28.0467H65.3165C67.0478 28.0467 68.4643 26.6302 68.4643 24.899V14.4483C68.4643 13.2522 67.5829 11.9616 66.4812 11.5209ZM36.9865 20.1773C34.3738 20.1773 32.2648 18.0683 32.2648 15.4556C32.2648 12.843 34.3738 10.7339 36.9865 10.7339C39.5991 10.7339 41.7081 12.843 41.7081 15.4556C41.7081 18.0683 39.5991 20.1773 36.9865 20.1773Z" fill="#F06022"/>
</svg>
