<svg width="24" height="24" viewBox="0 0 24 24" fill="none" xmlns="http://www.w3.org/2000/svg">
<path d="M14.7 22.749H9.30001C4.36001 22.749 2.26001 20.639 2.26001 15.709V11.219C2.26001 10.809 2.60001 10.469 3.01001 10.469C3.42001 10.469 3.76001 10.809 3.76001 11.219V15.709C3.76001 19.799 5.21001 21.249 9.30001 21.249H14.69C18.78 21.249 20.23 19.799 20.23 15.709V11.219C20.23 10.809 20.57 10.469 20.98 10.469C21.39 10.469 21.73 10.809 21.73 11.219V15.709C21.74 20.639 19.63 22.749 14.7 22.749Z" fill="#F06022"/>
<path d="M11.999 12.75C10.899 12.75 9.89903 12.32 9.18903 11.53C8.47903 10.74 8.14902 9.71 8.25902 8.61L8.92902 1.93C8.96903 1.55 9.28903 1.25 9.67903 1.25H14.349C14.739 1.25 15.059 1.54 15.099 1.93L15.769 8.61C15.879 9.71 15.549 10.74 14.839 11.53C14.099 12.32 13.099 12.75 11.999 12.75ZM10.349 2.75L9.74902 8.76C9.67902 9.43 9.87902 10.06 10.299 10.52C11.149 11.46 12.849 11.46 13.699 10.52C14.119 10.05 14.319 9.42 14.249 8.76L13.649 2.75H10.349Z" fill="#F06022"/>
<path d="M18.31 12.75C16.28 12.75 14.47 11.11 14.26 9.09L13.56 2.08C13.54 1.87 13.61 1.66 13.75 1.5C13.89 1.34 14.09 1.25 14.31 1.25H17.36C20.3 1.25 21.67 2.48 22.08 5.5L22.36 8.28C22.48 9.46 22.12 10.58 21.35 11.43C20.58 12.28 19.5 12.75 18.31 12.75ZM15.14 2.75L15.76 8.94C15.89 10.19 17.05 11.25 18.31 11.25C19.07 11.25 19.75 10.96 20.24 10.43C20.72 9.9 20.94 9.19 20.87 8.43L20.59 5.68C20.28 3.42 19.55 2.75 17.36 2.75H15.14ZM5.63904 12.75C4.44904 12.75 3.36904 12.28 2.59904 11.43C1.82904 10.58 1.46904 9.46 1.58904 8.28L1.85904 5.53C2.27904 2.48 3.64904 1.25 6.58905 1.25H9.63904C9.84904 1.25 10.049 1.34 10.199 1.5C10.349 1.66 10.409 1.87 10.389 2.08L9.68904 9.09C9.47904 11.11 7.66904 12.75 5.63904 12.75ZM6.58905 2.75C4.39904 2.75 3.66904 3.41 3.34904 5.7L3.07904 8.43C2.99904 9.19 3.22904 9.9 3.70904 10.43C4.18904 10.96 4.86904 11.25 5.63904 11.25C6.89904 11.25 8.06905 10.19 8.18904 8.94L8.80904 2.75H6.58905ZM14.5 22.75H9.50004C9.09004 22.75 8.75004 22.41 8.75004 22V19.5C8.75004 17.4 9.90005 16.25 12 16.25C14.1 16.25 15.25 17.4 15.25 19.5V22C15.25 22.41 14.91 22.75 14.5 22.75ZM10.25 21.25H13.75V19.5C13.75 18.24 13.26 17.75 12 17.75C10.74 17.75 10.25 18.24 10.25 19.5V21.25Z" fill="#F06022"/>
</svg>
