<svg width="81" height="80" viewBox="0 0 81 80" fill="none" xmlns="http://www.w3.org/2000/svg">
<g clip-path="url(#clip0_232_7786)">
<path opacity="0.4" d="M38.8334 70.0003C42.9919 70.0003 47.1097 69.1812 50.9517 67.5898C54.7937 65.9984 58.2846 63.6659 61.2251 60.7254C64.1656 57.7848 66.4982 54.2939 68.0896 50.452C69.681 46.61 70.5001 42.4922 70.5001 38.3337C70.5001 34.1751 69.681 30.0573 68.0896 26.2153C66.4982 22.3734 64.1656 18.8825 61.2251 15.9419C58.2846 13.0014 54.7937 10.6689 50.9517 9.07747C47.1097 7.48607 42.9919 6.66699 38.8334 6.66699C30.4349 6.66699 22.3804 10.0033 16.4417 15.9419C10.503 21.8806 7.16675 29.9351 7.16675 38.3337C7.16675 46.7322 10.503 54.7867 16.4417 60.7254C22.3804 66.664 30.4349 70.0003 38.8334 70.0003Z" fill="#F06022"/>
<path d="M71.4999 73.33C70.8999 73.33 70.2999 73.0966 69.8665 72.6633L63.6665 66.4633C63.2337 66.0231 62.9912 65.4306 62.9912 64.8133C62.9912 64.196 63.2337 63.6034 63.6665 63.1633C64.5665 62.2633 66.0332 62.2633 66.9665 63.1633L73.1665 69.3633C74.0665 70.2633 74.0665 71.7299 73.1665 72.6633C72.6999 73.0966 72.0999 73.33 71.4999 73.33Z" fill="#F06022"/>
<path d="M13.8333 77.4449C19.9699 77.4449 24.9444 72.4704 24.9444 66.3338C24.9444 60.1971 19.9699 55.2227 13.8333 55.2227C7.69661 55.2227 2.72217 60.1971 2.72217 66.3338C2.72217 72.4704 7.69661 77.4449 13.8333 77.4449Z" fill="#DB3B1B"/>
<path d="M15.0112 66.3336L17.5667 63.7781C17.889 63.4558 17.889 62.9225 17.5667 62.6003C17.4099 62.4453 17.1983 62.3584 16.9778 62.3584C16.7574 62.3584 16.5458 62.4453 16.389 62.6003L13.8334 65.1558L11.2778 62.6003C11.121 62.4453 10.9094 62.3584 10.689 62.3584C10.4685 62.3584 10.2569 62.4453 10.1001 62.6003C9.77784 62.9225 9.77784 63.4558 10.1001 63.7781L12.6556 66.3336L10.1001 68.8892C9.77784 69.2114 9.77784 69.7447 10.1001 70.067C10.2667 70.2336 10.4778 70.3114 10.689 70.3114C10.9001 70.3114 11.1112 70.2336 11.2778 70.067L13.8334 67.5114L16.389 70.067C16.5556 70.2336 16.7667 70.3114 16.9778 70.3114C17.189 70.3114 17.4001 70.2336 17.5667 70.067C17.889 69.7447 17.889 69.2114 17.5667 68.8892L15.0112 66.3336Z" fill="white"/>
</g>
<defs>
<clipPath id="clip0_232_7786">
<rect width="80" height="80" fill="white" transform="translate(0.5)"/>
</clipPath>
</defs>
</svg>
