<svg width="80" height="80" viewBox="0 0 80 80" fill="none" xmlns="http://www.w3.org/2000/svg">
<g clip-path="url(#clip0_221_7140)">
<path opacity="0.4" d="M73.3333 30.6995V49.2995C73.3333 62.9662 69.1666 67.1329 55.4999 67.1329H33.0333V57.0662C33.0333 55.7995 31.9666 54.7329 30.7 54.7329V25.2662C31.9666 25.2662 33.0333 24.1995 33.0333 22.9329V12.8662H55.4999C69.1666 12.8662 73.3333 17.0329 73.3333 30.6995Z" fill="#F06022"/>
<path d="M61.57 39.6595C62.1367 39.1262 62.3367 38.2929 62.1033 37.5595C61.9942 37.188 61.7778 36.857 61.4813 36.608C61.1848 36.3589 60.8214 36.2029 60.4366 36.1595L56.17 35.5262C56.0926 35.5126 56.0194 35.4815 55.9558 35.4352C55.8923 35.389 55.8401 35.3289 55.8033 35.2595L53.9033 31.3929C53.7346 31.0511 53.4733 30.7637 53.1492 30.5633C52.825 30.3629 52.4511 30.2577 52.07 30.2595C51.27 30.2595 50.57 30.6929 50.2033 31.3929L48.3033 35.2595C48.2704 35.3385 48.2149 35.406 48.1437 35.4534C48.0725 35.5009 47.9889 35.5262 47.9033 35.5262L43.6366 36.1595C42.87 36.2595 42.2033 36.8262 41.97 37.5595C41.8519 37.9243 41.8393 38.3149 41.9336 38.6865C42.028 39.0581 42.2255 39.3954 42.5033 39.6595L45.6033 42.6595C45.7366 42.7595 45.77 42.9595 45.7366 43.1262L45.0033 47.3595C44.87 48.1262 45.17 48.9262 45.8367 49.3595C46.1828 49.6192 46.6039 49.7595 47.0366 49.7595C47.37 49.7595 47.7033 49.6929 48.0033 49.5262L51.8366 47.5262C51.97 47.4595 52.17 47.4595 52.3033 47.5262L56.1366 49.5262C56.4803 49.7012 56.8658 49.7773 57.2502 49.7461C57.6346 49.715 58.0028 49.5777 58.3138 49.3496C58.6248 49.1216 58.8664 48.8117 59.0117 48.4544C59.157 48.0972 59.2002 47.7066 59.1366 47.3262L58.4033 43.0929C58.3918 43.0101 58.3977 42.9258 58.4207 42.8455C58.4436 42.7651 58.4832 42.6904 58.5367 42.6262L61.57 39.6595ZM30.6966 25.2662V54.7329C29.43 54.7329 28.3633 55.7995 28.3633 57.0662V67.1329H24.4966C11.33 67.1329 6.99665 63.1995 6.69665 50.9329C6.66332 50.2995 6.92998 49.6995 7.36332 49.2662C7.79665 48.7995 8.42998 48.5662 9.02998 48.5662C13.6966 48.5662 17.53 44.7329 17.53 40.0329C17.53 35.3329 13.6966 31.4662 9.02998 31.4662C8.36332 31.4662 7.79665 31.2329 7.36332 30.7662C7.14441 30.5486 6.97234 30.2884 6.85769 30.0018C6.74304 29.7152 6.68824 29.4081 6.69665 29.0995C6.99665 16.7995 11.33 12.8662 24.4966 12.8662H28.3633V22.9329C28.3633 24.2329 29.43 25.2662 30.6966 25.2662Z" fill="#F06022"/>
<path d="M68.3333 74.4449C74.4699 74.4449 79.4444 69.4704 79.4444 63.3338C79.4444 57.1971 74.4699 52.2227 68.3333 52.2227C62.1966 52.2227 57.2222 57.1971 57.2222 63.3338C57.2222 69.4704 62.1966 74.4449 68.3333 74.4449Z" fill="#DB3B1B"/>
<path d="M69.5112 63.3336L72.0667 60.7781C72.389 60.4558 72.389 59.9225 72.0667 59.6003C71.9099 59.4453 71.6983 59.3584 71.4778 59.3584C71.2574 59.3584 71.0458 59.4453 70.889 59.6003L68.3334 62.1558L65.7778 59.6003C65.621 59.4453 65.4094 59.3584 65.189 59.3584C64.9685 59.3584 64.7569 59.4453 64.6001 59.6003C64.2778 59.9225 64.2778 60.4558 64.6001 60.7781L67.1556 63.3336L64.6001 65.8892C64.2778 66.2114 64.2778 66.7447 64.6001 67.067C64.7667 67.2336 64.9778 67.3114 65.189 67.3114C65.4001 67.3114 65.6112 67.2336 65.7778 67.067L68.3334 64.5114L70.889 67.067C71.0556 67.2336 71.2667 67.3114 71.4778 67.3114C71.689 67.3114 71.9001 67.2336 72.0667 67.067C72.389 66.7447 72.389 66.2114 72.0667 65.8892L69.5112 63.3336Z" fill="white"/>
</g>
<defs>
<clipPath id="clip0_221_7140">
<rect width="80" height="80" fill="white"/>
</clipPath>
</defs>
</svg>
