<svg width="80" height="80" viewBox="0 0 80 80" fill="none" xmlns="http://www.w3.org/2000/svg">
<path d="M72.833 19V27.0667C72.833 32.3333 69.4997 35.6667 64.233 35.6667H52.833V12.3667C52.833 8.66665 55.8663 5.63332 59.5663 5.66665C63.1997 5.69999 66.533 7.16665 68.933 9.56665C71.333 12 72.833 15.3333 72.833 19Z" fill="#F06022"/>
<path opacity="0.4" d="M6.16699 22.3334V69.0001C6.16699 71.7668 9.30033 73.3334 11.5003 71.6667L17.2003 67.4001C18.5337 66.4001 20.4003 66.5334 21.6003 67.7334L27.1337 73.3001C28.4337 74.6001 30.567 74.6001 31.867 73.3001L37.467 67.7001C38.6337 66.5334 40.5003 66.4001 41.8003 67.4001L47.5003 71.6667C49.7003 73.3001 52.8337 71.7334 52.8337 69.0001V12.3334C52.8337 8.66675 55.8337 5.66675 59.5003 5.66675H19.5003C9.50033 5.66675 6.16699 11.6334 6.16699 19.0001V22.3334Z" fill="#F06022"/>
<path d="M37.5999 39.2733C35.7665 39.2733 34.2665 40.7733 34.2665 42.6067C34.2665 44.44 35.7665 45.94 37.5999 45.94C39.4332 45.94 40.9332 44.44 40.9332 42.6067C40.9332 40.7733 39.4332 39.2733 37.5999 39.2733ZM21.3999 32.4367C23.2665 32.4367 24.7332 30.9367 24.7332 29.1033C24.7332 27.27 23.2332 25.77 21.3999 25.77C19.5665 25.77 18.0665 27.27 18.0665 29.1033C18.0665 30.9367 19.5665 32.4367 21.3999 32.4367ZM40.3665 24.8C39.8961 24.3351 39.2613 24.0743 38.5999 24.0743C37.9384 24.0743 37.3037 24.3351 36.8332 24.8L18.6332 43C17.6665 43.9667 17.6665 45.5667 18.6332 46.5333C19.1332 47.0333 19.7665 47.2667 20.3999 47.2667C21.0332 47.2667 21.6665 47.0333 22.1665 46.5333L40.3665 28.3333C41.3332 27.3667 41.3332 25.7667 40.3665 24.8Z" fill="#F06022"/>
<path d="M53.3338 77.4444C59.4704 77.4444 64.4449 72.4699 64.4449 66.3333C64.4449 60.1966 59.4704 55.2222 53.3338 55.2222C47.1971 55.2222 42.2227 60.1966 42.2227 66.3333C42.2227 72.4699 47.1971 77.4444 53.3338 77.4444Z" fill="#DB3B1B"/>
<path d="M54.5112 66.3334L57.0667 63.7778C57.389 63.4556 57.389 62.9223 57.0667 62.6C56.9099 62.4451 56.6983 62.3582 56.4778 62.3582C56.2574 62.3582 56.0458 62.4451 55.889 62.6L53.3334 65.1556L50.7778 62.6C50.621 62.4451 50.4094 62.3582 50.189 62.3582C49.9685 62.3582 49.7569 62.4451 49.6001 62.6C49.2778 62.9223 49.2778 63.4556 49.6001 63.7778L52.1556 66.3334L49.6001 68.8889C49.2778 69.2112 49.2778 69.7445 49.6001 70.0667C49.7667 70.2334 49.9778 70.3112 50.189 70.3112C50.4001 70.3112 50.6112 70.2334 50.7778 70.0667L53.3334 67.5112L55.889 70.0667C56.0556 70.2334 56.2667 70.3112 56.4778 70.3112C56.689 70.3112 56.9001 70.2334 57.0667 70.0667C57.389 69.7445 57.389 69.2112 57.0667 68.8889L54.5112 66.3334Z" fill="white"/>
</svg>
