<svg width="32" height="32" viewBox="0 0 32 32" fill="none" xmlns="http://www.w3.org/2000/svg">
<path d="M22.6667 28.3327H9.33335C4.46669 28.3327 1.66669 25.5327 1.66669 20.666V11.3327C1.66669 6.46602 4.46669 3.66602 9.33335 3.66602H22.6667C27.5334 3.66602 30.3334 6.46602 30.3334 11.3327V20.666C30.3334 25.5327 27.5334 28.3327 22.6667 28.3327ZM9.33335 5.66602C5.52002 5.66602 3.66669 7.51935 3.66669 11.3327V20.666C3.66669 24.4793 5.52002 26.3327 9.33335 26.3327H22.6667C26.48 26.3327 28.3334 24.4793 28.3334 20.666V11.3327C28.3334 7.51935 26.48 5.66602 22.6667 5.66602H9.33335Z" fill="#F06022"/>
<path d="M15.9987 17.158C14.8787 17.158 13.7453 16.8113 12.8787 16.1047L8.70533 12.7713C8.51126 12.6028 8.38974 12.3659 8.36611 12.11C8.34247 11.8541 8.41855 11.5989 8.57848 11.3977C8.7384 11.1965 8.96983 11.0648 9.22449 11.0301C9.47915 10.9954 9.73738 11.0603 9.94533 11.2113L14.1187 14.5447C15.132 15.358 16.852 15.358 17.8653 14.5447L22.0387 11.2113C22.4653 10.8647 23.1053 10.9313 23.4387 11.3713C23.7853 11.798 23.7187 12.438 23.2787 12.7713L19.1053 16.1047C18.252 16.8113 17.1187 17.158 15.9987 17.158Z" fill="#F06022"/>
</svg>
