<svg width="25" height="24" viewBox="0 0 25 24" fill="none" xmlns="http://www.w3.org/2000/svg">
<path d="M13.3835 16.248H11.5035C10.1735 16.248 9.0835 15.128 9.0835 13.748C9.0835 13.338 9.4235 12.998 9.8335 12.998C10.2435 12.998 10.5835 13.338 10.5835 13.748C10.5835 14.298 10.9935 14.748 11.5035 14.748H13.3835C13.7735 14.748 14.0835 14.398 14.0835 13.968C14.0835 13.428 13.9335 13.348 13.5935 13.228L10.5835 12.178C9.9435 11.948 9.0835 11.488 9.0835 10.018C9.0835 8.76804 10.0735 7.73804 11.2835 7.73804H13.1635C14.4935 7.73804 15.5835 8.85804 15.5835 10.238C15.5835 10.648 15.2435 10.988 14.8335 10.988C14.4235 10.988 14.0835 10.648 14.0835 10.238C14.0835 9.68804 13.6735 9.23804 13.1635 9.23804H11.2835C10.8935 9.23804 10.5835 9.58804 10.5835 10.018C10.5835 10.558 10.7335 10.638 11.0735 10.758L14.0835 11.808C14.7235 12.038 15.5835 12.498 15.5835 13.968C15.5835 15.228 14.5935 16.248 13.3835 16.248Z" fill="#F06022"/>
<path d="M12.3335 17.25C11.9235 17.25 11.5835 16.91 11.5835 16.5V7.5C11.5835 7.09 11.9235 6.75 12.3335 6.75C12.7435 6.75 13.0835 7.09 13.0835 7.5V16.5C13.0835 16.91 12.7435 17.25 12.3335 17.25Z" fill="#F06022"/>
<path d="M12.3335 22.75C6.4035 22.75 1.5835 17.93 1.5835 12C1.5835 6.07 6.4035 1.25 12.3335 1.25C12.7435 1.25 13.0835 1.59 13.0835 2C13.0835 2.41 12.7435 2.75 12.3335 2.75C7.2335 2.75 3.0835 6.9 3.0835 12C3.0835 17.1 7.2335 21.25 12.3335 21.25C17.4335 21.25 21.5835 17.1 21.5835 12C21.5835 11.59 21.9235 11.25 22.3335 11.25C22.7435 11.25 23.0835 11.59 23.0835 12C23.0835 17.93 18.2635 22.75 12.3335 22.75ZM22.3335 6.75C21.9235 6.75 21.5835 6.41 21.5835 6V2.75H18.3335C17.9235 2.75 17.5835 2.41 17.5835 2C17.5835 1.59 17.9235 1.25 18.3335 1.25H22.3335C22.7435 1.25 23.0835 1.59 23.0835 2V6C23.0835 6.41 22.7435 6.75 22.3335 6.75Z" fill="#F06022"/>
<path d="M17.3346 7.75104C17.1446 7.75104 16.9546 7.68104 16.8046 7.53104C16.6651 7.3899 16.5869 7.19947 16.5869 7.00104C16.5869 6.80261 16.6651 6.61218 16.8046 6.47104L21.8046 1.47104C22.0946 1.18104 22.5746 1.18104 22.8646 1.47104C23.1546 1.76104 23.1546 2.24104 22.8646 2.53104L17.8646 7.53104C17.7146 7.68104 17.5246 7.75104 17.3346 7.75104Z" fill="#F06022"/>
</svg>
