<svg width="81" height="80" viewBox="0 0 81 80" fill="none" xmlns="http://www.w3.org/2000/svg">
<g clip-path="url(#clip0_212_6261)">
<path opacity="0.4" d="M73.8335 30.7V49.3C73.8335 62.9667 69.6669 67.1334 56.0002 67.1334H33.5335V57.0667C33.5335 55.8 32.4669 54.7334 31.2002 54.7334V25.2667C32.4669 25.2667 33.5335 24.2 33.5335 22.9334V12.8667H56.0002C69.6669 12.8667 73.8335 17.0334 73.8335 30.7Z" fill="#F06022"/>
<path d="M62.0705 39.66C62.6371 39.1267 62.8371 38.2934 62.6038 37.56C62.4947 37.1885 62.2783 36.8575 61.9818 36.6084C61.6853 36.3594 61.3219 36.2034 60.9371 36.16L56.6705 35.5267C56.5931 35.5131 56.5199 35.4819 56.4563 35.4357C56.3928 35.3895 56.3406 35.3294 56.3038 35.26L54.4038 31.3934C54.2351 31.0516 53.9738 30.7642 53.6497 30.5638C53.3255 30.3634 52.9516 30.2582 52.5705 30.26C51.7705 30.26 51.0705 30.6934 50.7038 31.3934L48.8038 35.26C48.7709 35.339 48.7154 35.4065 48.6442 35.4539C48.573 35.5014 48.4894 35.5267 48.4038 35.5267L44.1371 36.16C43.3705 36.26 42.7038 36.8267 42.4705 37.56C42.3524 37.9247 42.3398 38.3154 42.4341 38.687C42.5285 39.0586 42.726 39.3959 43.0038 39.66L46.1038 42.66C46.2371 42.76 46.2705 42.96 46.2371 43.1267L45.5038 47.36C45.3705 48.1267 45.6705 48.9267 46.3371 49.36C46.6833 49.6197 47.1044 49.76 47.5371 49.76C47.8705 49.76 48.2038 49.6934 48.5038 49.5267L52.3371 47.5267C52.4705 47.46 52.6705 47.46 52.8038 47.5267L56.6371 49.5267C56.9808 49.7017 57.3663 49.7778 57.7507 49.7466C58.1351 49.7154 58.5033 49.5782 58.8143 49.3501C59.1253 49.1221 59.3669 48.8121 59.5122 48.4549C59.6574 48.0976 59.7007 47.7071 59.6371 47.3267L58.9038 43.0934C58.8923 43.0106 58.8982 42.9263 58.9212 42.8459C58.9441 42.7656 58.9836 42.6909 59.0371 42.6267L62.0705 39.66ZM31.1971 25.2667V54.7334C29.9305 54.7334 28.8638 55.8 28.8638 57.0667V67.1334H24.9971C11.8305 67.1334 7.49714 63.2 7.19714 50.9334C7.1638 50.3 7.43047 49.7 7.8638 49.2667C8.29714 48.8 8.93047 48.5667 9.53047 48.5667C14.1971 48.5667 18.0305 44.7334 18.0305 40.0334C18.0305 35.3334 14.1971 31.4667 9.53047 31.4667C8.8638 31.4667 8.29714 31.2334 7.8638 30.7667C7.6449 30.549 7.47283 30.2889 7.35818 30.0023C7.24353 29.7157 7.18873 29.4086 7.19714 29.1C7.49714 16.8 11.8305 12.8667 24.9971 12.8667H28.8638V22.9334C28.8638 24.2334 29.9305 25.2667 31.1971 25.2667Z" fill="#F06022"/>
<path d="M66.4997 50.3335C60.0713 50.3335 54.833 55.5718 54.833 62.0002C54.833 68.4285 60.0713 73.6668 66.4997 73.6668C72.928 73.6668 78.1663 68.4285 78.1663 62.0002C78.1663 55.5718 72.928 50.3335 66.4997 50.3335ZM72.0763 59.3168L65.4613 65.9318C65.2973 66.0957 65.0749 66.1877 64.843 66.1877C64.6111 66.1877 64.3887 66.0957 64.2247 65.9318L60.923 62.6302C60.7603 62.4655 60.669 62.2433 60.669 62.0118C60.669 61.7803 60.7603 61.5582 60.923 61.3935C61.2613 61.0552 61.8213 61.0552 62.1597 61.3935L64.843 64.0768L70.8397 58.0802C71.178 57.7418 71.738 57.7418 72.0763 58.0802C72.4147 58.4185 72.4147 58.9668 72.0763 59.3168Z" fill="#F06022"/>
</g>
<defs>
<clipPath id="clip0_212_6261">
<rect width="80" height="80" fill="white" transform="translate(0.5)"/>
</clipPath>
</defs>
</svg>
