<svg width="16" height="16" viewBox="0 0 16 16" fill="none" xmlns="http://www.w3.org/2000/svg">
<path d="M11.3333 13.8337H4.66668C1.72668 13.8337 0.833344 12.9403 0.833344 10.0003V9.66699C0.833344 9.39366 1.06001 9.16699 1.33334 9.16699C1.97334 9.16699 2.50001 8.64033 2.50001 8.00033C2.50001 7.36033 1.97334 6.83366 1.33334 6.83366C1.06001 6.83366 0.833344 6.60699 0.833344 6.33366V6.00033C0.833344 3.06033 1.72668 2.16699 4.66668 2.16699H11.3333C14.2733 2.16699 15.1667 3.06033 15.1667 6.00033V6.66699C15.1667 6.94033 14.94 7.16699 14.6667 7.16699C14.0267 7.16699 13.5 7.69366 13.5 8.33366C13.5 8.97366 14.0267 9.50033 14.6667 9.50033C14.94 9.50033 15.1667 9.72699 15.1667 10.0003C15.1667 12.9403 14.2733 13.8337 11.3333 13.8337ZM1.83334 10.107C1.84668 12.4003 2.32001 12.8337 4.66668 12.8337H11.3333C13.56 12.8337 14.1 12.4403 14.16 10.4403C13.687 10.3266 13.266 10.0569 12.9649 9.67472C12.6637 9.29257 12.5 8.82019 12.5 8.33366C12.5 7.31366 13.2133 6.45366 14.1667 6.22699V6.00033C14.1667 3.62033 13.72 3.16699 11.3333 3.16699H4.66668C2.32001 3.16699 1.84668 3.60033 1.83334 5.89366C2.78668 6.12033 3.50001 6.98033 3.50001 8.00033C3.50001 9.02033 2.78668 9.88033 1.83334 10.107Z" fill="#919192"/>
<path d="M6.66666 4.83366C6.39332 4.83366 6.16666 4.60699 6.16666 4.33366V2.66699C6.16666 2.39366 6.39332 2.16699 6.66666 2.16699C6.93999 2.16699 7.16666 2.39366 7.16666 2.66699V4.33366C7.16666 4.60699 6.93999 4.83366 6.66666 4.83366ZM6.66666 9.72033C6.39332 9.72033 6.16666 9.49366 6.16666 9.22033V6.77366C6.16666 6.50033 6.39332 6.27366 6.66666 6.27366C6.93999 6.27366 7.16666 6.50033 7.16666 6.77366V9.22033C7.16666 9.50033 6.93999 9.72033 6.66666 9.72033ZM6.66666 13.8337C6.39332 13.8337 6.16666 13.607 6.16666 13.3337V11.667C6.16666 11.3937 6.39332 11.167 6.66666 11.167C6.93999 11.167 7.16666 11.3937 7.16666 11.667V13.3337C7.16666 13.607 6.93999 13.8337 6.66666 13.8337Z" fill="#919192"/>
</svg>
