<svg width="24" height="24" viewBox="0 0 24 24" fill="none" xmlns="http://www.w3.org/2000/svg">
<path d="M12 22.75C6.07 22.75 1.25 17.93 1.25 12C1.25 6.07 6.07 1.25 12 1.25C17.93 1.25 22.75 6.07 22.75 12C22.75 17.93 17.93 22.75 12 22.75ZM12 2.75C6.9 2.75 2.75 6.9 2.75 12C2.75 17.1 6.9 21.25 12 21.25C17.1 21.25 21.25 17.1 21.25 12C21.25 6.9 17.1 2.75 12 2.75Z" fill="#DB9E28"/>
<path d="M15.7101 15.9322C15.5753 15.9346 15.4428 15.8963 15.3301 15.8222L12.2301 13.9722C11.4601 13.5122 10.8901 12.5022 10.8901 11.6122V7.51221C10.8901 7.10221 11.2301 6.76221 11.6401 6.76221C12.0501 6.76221 12.3901 7.10221 12.3901 7.51221V11.6122C12.3901 11.9722 12.6901 12.5022 13.0001 12.6822L16.1001 14.5322C16.4601 14.7422 16.5701 15.2022 16.3601 15.5622C16.2922 15.674 16.1968 15.7667 16.0831 15.8314C15.9693 15.8962 15.841 15.9309 15.7101 15.9322Z" fill="#DB9E28"/>
</svg>
