<svg width="24" height="24" viewBox="0 0 24 24" fill="none" xmlns="http://www.w3.org/2000/svg">
<path d="M17.279 11.2C17.089 11.2 16.899 11.13 16.749 10.98C16.6095 10.8389 16.5312 10.6484 16.5312 10.45C16.5312 10.2516 16.6095 10.0611 16.749 9.92L19.939 6.73L16.749 3.54C16.6095 3.39886 16.5312 3.20843 16.5312 3.01C16.5312 2.81157 16.6095 2.62113 16.749 2.48C17.039 2.19 17.519 2.19 17.809 2.48L21.529 6.2C21.6694 6.34062 21.7483 6.53125 21.7483 6.73C21.7483 6.92875 21.6694 7.11937 21.529 7.26L17.809 10.98C17.659 11.12 17.469 11.2 17.279 11.2Z" fill="#F06022"/>
<path d="M21 7.48H3C2.59 7.48 2.25 7.14 2.25 6.73C2.25 6.32 2.59 5.98 3 5.98H21C21.41 5.98 21.75 6.32 21.75 6.73C21.75 7.14 21.41 7.48 21 7.48ZM6.72 21.75C6.53 21.75 6.34 21.68 6.19 21.53L2.47 17.81C2.32955 17.6694 2.25066 17.4787 2.25066 17.28C2.25066 17.0812 2.32955 16.8906 2.47 16.75L6.19 13.03C6.48 12.74 6.96 12.74 7.25 13.03C7.54 13.32 7.54 13.8 7.25 14.09L4.06 17.28L7.25 20.47C7.54 20.76 7.54 21.24 7.25 21.53C7.18183 21.6015 7.09948 21.658 7.00822 21.6959C6.91695 21.7338 6.81879 21.7522 6.72 21.75Z" fill="#F06022"/>
<path d="M21 18.02H3C2.59 18.02 2.25 17.68 2.25 17.27C2.25 16.86 2.59 16.52 3 16.52H21C21.41 16.52 21.75 16.86 21.75 17.27C21.75 17.68 21.41 18.02 21 18.02Z" fill="#F06022"/>
</svg>
