<svg width="25" height="24" viewBox="0 0 25 24" fill="none" xmlns="http://www.w3.org/2000/svg">
<path d="M21.4997 6.72998H21.4197C16.1297 6.19998 10.8497 5.99998 5.61967 6.52998L3.57967 6.72998C3.48044 6.74033 3.38013 6.73091 3.28456 6.70226C3.18898 6.67361 3.10004 6.62631 3.02286 6.56308C2.94567 6.49984 2.88179 6.42194 2.8349 6.33387C2.78801 6.2458 2.75904 6.14931 2.74967 6.04998C2.70967 5.62998 3.00967 5.26998 3.41967 5.22998L5.45967 5.02998C10.7797 4.48998 16.1697 4.69998 21.5697 5.22998C21.9797 5.26998 22.2797 5.63998 22.2397 6.04998C22.2246 6.23566 22.14 6.40881 22.0028 6.53486C21.8656 6.66091 21.686 6.73059 21.4997 6.72998Z" fill="#DB3B1B"/>
<path d="M9.00039 5.72C8.96039 5.72 8.92039 5.72 8.87039 5.71C8.67637 5.67504 8.5038 5.56538 8.38975 5.40458C8.27569 5.24378 8.22925 5.04467 8.26039 4.85L8.48039 3.54C8.64039 2.58 8.86039 1.25 11.1904 1.25H13.8104C16.1504 1.25 16.3704 2.63 16.5204 3.55L16.7404 4.85C16.8104 5.26 16.5304 5.65 16.1304 5.71C15.7204 5.78 15.3304 5.5 15.2704 5.1L15.0504 3.8C14.9104 2.93 14.8804 2.76 13.8204 2.76H11.2004C10.1404 2.76 10.1204 2.9 9.97039 3.79L9.74039 5.09C9.7119 5.26576 9.62181 5.42565 9.48623 5.54107C9.35066 5.6565 9.17844 5.71992 9.00039 5.72ZM15.7104 22.752H9.29039C5.80039 22.752 5.66039 20.822 5.55039 19.262L4.90039 9.192C4.87039 8.782 5.19039 8.422 5.60039 8.392C6.02039 8.372 6.37039 8.682 6.40039 9.092L7.05039 19.162C7.16039 20.682 7.20039 21.252 9.29039 21.252H15.7104C17.8104 21.252 17.8504 20.682 17.9504 19.162L18.6004 9.092C18.6304 8.682 18.9904 8.372 19.4004 8.392C19.8104 8.422 20.1304 8.772 20.1004 9.192L19.4504 19.262C19.3404 20.822 19.2004 22.752 15.7104 22.752Z" fill="#DB3B1B"/>
<path d="M14.16 17.25H10.83C10.42 17.25 10.08 16.91 10.08 16.5C10.08 16.09 10.42 15.75 10.83 15.75H14.16C14.57 15.75 14.91 16.09 14.91 16.5C14.91 16.91 14.57 17.25 14.16 17.25ZM15 13.25H10C9.59 13.25 9.25 12.91 9.25 12.5C9.25 12.09 9.59 11.75 10 11.75H15C15.41 11.75 15.75 12.09 15.75 12.5C15.75 12.91 15.41 13.25 15 13.25Z" fill="#DB3B1B"/>
</svg>
