<svg width="20" height="22" viewBox="0 0 20 22" fill="none" xmlns="http://www.w3.org/2000/svg">
<path d="M10 11.75C6.83003 11.75 4.25003 9.17 4.25003 6C4.25003 2.83 6.83003 0.25 10 0.25C13.17 0.25 15.75 2.83 15.75 6C15.75 9.17 13.17 11.75 10 11.75ZM10 1.75C8.87368 1.75264 7.79421 2.20126 6.99775 2.99771C6.20129 3.79417 5.75268 4.87364 5.75003 6C5.75268 7.12636 6.20129 8.20583 6.99775 9.00229C7.79421 9.79875 8.87368 10.2474 10 10.25C11.1264 10.2474 12.2059 9.79875 13.0023 9.00229C13.7988 8.20583 14.2474 7.12636 14.25 6C14.2474 4.87364 13.7988 3.79417 13.0023 2.99771C12.2059 2.20126 11.1264 1.75264 10 1.75ZM18.59 21.75C18.18 21.75 17.84 21.41 17.84 21C17.84 17.55 14.32 14.75 10 14.75C5.68003 14.75 2.16003 17.55 2.16003 21C2.16003 21.41 1.82003 21.75 1.41003 21.75C1.00003 21.75 0.660034 21.41 0.660034 21C0.660034 16.73 4.85003 13.25 10 13.25C15.15 13.25 19.34 16.73 19.34 21C19.34 21.41 19 21.75 18.59 21.75Z" fill="#F06022"/>
</svg>
