<svg width="246" height="75" viewBox="0 0 246 75" fill="none" xmlns="http://www.w3.org/2000/svg">
<path d="M102.779 32.2213H91.9419L93.2456 26.2019H122.222L120.918 32.2213H110.07L104.615 58.3209H97.2783L102.779 32.2213Z" fill="#F06022"/>
<path d="M122.332 34.756H129.404L124.41 58.3182H117.338L122.332 34.756ZM124.472 26.2019H131.585L130.341 32.1539H123.228L124.472 26.2019Z" fill="#F06022"/>
<path d="M138.846 44.63C141.551 42.179 146.941 37.8575 150.442 34.756H159.239C155.233 37.8359 151.117 41.1047 147.632 43.9957L154.774 58.3182H146.909L142.336 47.8071L137.55 51.0543L135.996 58.3182H128.924L135.769 26.2019H142.841L138.846 44.63Z" fill="#F06022"/>
<path d="M162.487 48.185C162.481 48.3037 162.476 48.6681 162.476 48.8436C162.476 51.4754 163.885 53.5538 167.264 53.5538C169.977 53.5538 171.143 52.7144 172.101 51.3269H179.473C177.889 55.3408 174.064 58.9578 166.706 58.9578C158.881 58.9578 155.479 54.0829 155.479 48.2227C155.479 41.7417 159.952 34.1189 169.864 34.1189C177.646 34.1189 180.995 38.6618 180.995 44.1711C180.995 45.5693 180.863 46.6841 180.396 48.185H162.487ZM174.196 43.7068C174.196 43.6204 174.201 43.4126 174.201 43.2263C174.201 40.7538 172.657 39.1639 169.499 39.1639C166.158 39.1639 164.241 41.0831 163.531 43.7068H174.196Z" fill="#F06022"/>
<path d="M183.014 34.756H187.098L188.706 26.2019H195.819L194.21 34.756H199.433L198.329 39.9494H193.106L190.939 50.1744C190.501 52.18 190.607 53.1409 192.809 53.1409C193.514 53.1409 194.704 53.0842 195.349 52.9412L194.291 57.97C193.012 58.3344 191.341 58.5071 189.667 58.5071C184.088 58.5071 182.593 55.9455 183.54 51.3945L185.994 39.9494H181.91L183.014 34.756Z" fill="#F06022"/>
<path d="M201.992 34.756H209.064L204.071 58.3182H196.999L201.992 34.756ZM204.133 26.2019H211.245L210.001 32.1539H202.888L204.133 26.2019Z" fill="#F06022"/>
<path d="M212.268 40.7025C212.679 38.7077 213.094 36.5888 213.448 34.756H220.431C220.363 35.4335 220.126 37.0315 219.961 37.8331C221.265 36.2028 223.664 34.1162 228.237 34.1162C233.344 34.1162 236.505 37.1637 235.028 44.2494L232.04 58.3154H224.928L227.754 44.8189C228.31 42.1223 228.024 39.8117 224.579 39.8117C221.019 39.8117 218.952 42.368 217.996 46.9379L215.653 58.3154H208.581L212.268 40.7025Z" fill="#F06022"/>
<path d="M235.773 58.3207L237.657 49.5803H245.504L243.62 58.3207H235.773Z" fill="#F06022"/>
<path d="M85.5361 0H8.35683C7.7657 0 7.20426 0.175461 6.7211 0.445391C6.73189 0.456188 6.73189 0.475081 6.7211 0.493976L6.50786 3.33094C6.47007 3.81412 6.0058 4.20281 5.47135 4.20281H5.13125L5.02598 5.52817H5.36608C5.89783 5.52817 6.30541 5.90607 6.26762 6.40004L6.05439 9.2289C6.0166 9.71208 5.54153 10.1008 5.01788 10.1008H4.68047L4.5725 11.4261H4.91261C5.44436 11.4261 5.85194 11.8148 5.81415 12.298L5.59012 15.1269C5.55233 15.61 5.08536 15.9987 4.55361 15.9987H4.2135L4.11633 17.3241H4.45644C4.98819 17.3241 5.39577 17.7209 5.35798 18.196L5.13395 21.0248C5.09616 21.508 4.62919 21.9048 4.09744 21.9048H3.75734L3.66016 23.2221H4.00027C4.53202 23.2221 4.9288 23.6189 4.90181 24.0939L4.67777 26.9228C4.63998 27.4168 4.17302 27.8028 3.64127 27.8028H3.30386L3.19589 29.12H3.536C4.06775 29.12 4.47533 29.5168 4.43754 29.9919L4.2243 32.8289C4.18651 33.312 3.71955 33.7088 3.1878 33.7088H2.84769L2.74242 35.0153H3.07983C3.61158 35.0153 4.01916 35.4121 3.98137 35.8953L3.76813 38.7241C3.73034 39.2073 3.25528 39.6041 2.73163 39.6041H2.38342L2.28625 40.9214H2.62636C3.1581 40.9214 3.56569 41.3074 3.5279 41.8013L3.30386 44.6194C3.26607 45.1026 2.79911 45.4994 2.26736 45.4994H1.92995L1.83278 46.8166H2.17288C2.70463 46.8166 3.11222 47.2134 3.07443 47.6966L2.85039 50.5255C2.8126 51.0005 2.34563 51.3973 1.81388 51.3973H1.47378L1.37661 52.7146H1.71671C2.24846 52.7146 2.64525 53.1114 2.61826 53.5946L2.39422 56.4234C2.35643 56.9066 1.89216 57.2953 1.35772 57.2953H1.01761L0.912341 58.6126H1.25245C1.78419 58.6126 2.19178 59.0094 2.15399 59.4925L1.93805 62.3322C1.90026 62.8073 1.43329 63.2041 0.901544 63.2041H0.564139L0.456169 64.5213H0.796274C1.32802 64.5213 1.73561 64.9073 1.69782 65.3932L1.47378 68.2302C1.44409 68.7052 0.969024 69.102 0.437275 69.102H0.0971706L0 70.4274H0.340102C0.871852 70.4274 1.27944 70.8053 1.24165 71.2993L1.01761 74.1281C1.00681 74.2631 0.960927 74.3981 0.890747 74.5168C1.34692 74.8273 1.91646 75 2.54538 75H79.7219C81.3307 75 82.7235 73.8285 82.8314 72.3763L83.3146 66.2273C78.3858 63.5739 75.4409 51.7105 76.5368 37.5068C77.6408 23.2923 82.4239 11.4477 87.7602 8.79432L88.2353 2.63452C88.3541 1.1796 87.1421 0 85.5361 0ZM49.1261 29.3117C49.0208 29.3117 48.9128 29.417 48.894 29.5438L48.8157 30.0675C48.7968 30.2024 48.8724 30.3104 48.9884 30.3104C48.9884 30.3212 48.9884 30.3212 48.9884 30.3293L48.9398 30.6775H48.929C48.813 30.6775 48.6969 30.7828 48.678 30.9097L48.5997 31.3847V31.4036L44.7155 57.4141C44.6292 58.0052 44.1163 58.4884 43.5738 58.4884L33.87 58.4776C33.3275 58.4776 32.9685 57.9944 33.0575 57.3925L36.9498 31.3712H36.6691L24.7709 31.355C24.2283 31.355 23.8612 30.88 23.9476 30.2996L25.5645 19.6779C25.6508 19.0867 26.1637 18.6225 26.7062 18.6225L38.4722 18.6333L50.5675 18.6522L50.5 19.1164C50.4811 19.2433 50.5486 19.3486 50.6646 19.3594L50.6053 19.7265C50.4892 19.7265 50.3812 19.8317 50.3623 19.9694L50.276 20.4931C50.2571 20.6199 50.3353 20.7171 50.4514 20.7252L50.392 21.0923C50.276 21.1112 50.168 21.1976 50.1491 21.3353L50.0708 21.8589C50.0519 21.9858 50.1302 22.0911 50.2355 22.0911L50.1761 22.4582C50.0708 22.4771 49.9521 22.585 49.9332 22.7011L49.8549 23.2248C49.836 23.3516 49.9116 23.4569 50.0276 23.4569L49.9602 23.8456C49.8549 23.8456 49.7469 23.9509 49.728 24.0696L49.6497 24.6014C49.6308 24.7175 49.6983 24.8254 49.8144 24.8254L49.755 25.2115C49.6389 25.2222 49.531 25.3167 49.5121 25.4436L49.4338 25.9673C49.4149 26.0941 49.4824 26.1913 49.6092 26.1994L49.5418 26.5773C49.4257 26.5881 49.3177 26.6826 49.2988 26.8094L49.2206 27.3331C49.2017 27.46 49.2799 27.5571 49.3852 27.5652L49.3285 27.9431C49.2206 27.9539 49.1045 28.0592 49.0856 28.1753L49.0073 28.6989C48.9884 28.8258 49.064 28.9311 49.1801 28.9311L49.1261 29.3117ZM64.1149 21.0707C63.2728 21.4567 62.4387 23.0952 62.1391 25.0414C61.8395 26.9876 62.1769 28.6153 62.903 29.0013L62.7275 30.135C62.6115 30.8503 61.9718 31.4333 61.305 31.4333H49.3744L49.4419 30.9286C49.4608 30.8125 49.3933 30.7045 49.2772 30.6964L49.3366 30.3185C49.4527 30.3185 49.558 30.2132 49.5796 30.0864L49.6578 29.5627C49.6767 29.4359 49.5985 29.3387 49.4932 29.3306L49.5526 28.9527C49.6686 28.9419 49.7766 28.8474 49.7955 28.7205L49.8738 28.1969C49.8927 28.07 49.8144 27.9647 49.7091 27.9647L49.7685 27.5868C49.8738 27.576 49.9817 27.4708 50.0006 27.3547L50.087 26.8229C50.1059 26.7069 50.0303 26.5989 49.9143 26.5908L49.9736 26.2129C50.0897 26.2129 50.1977 26.1076 50.2166 25.9807L50.2949 25.4571C50.3138 25.3302 50.2463 25.233 50.1302 25.2249L50.1896 24.847C50.3057 24.8362 50.4136 24.7418 50.4325 24.6149L50.5108 24.0912C50.5297 23.9644 50.4514 23.8591 50.3461 23.8591L50.4055 23.4812C50.5108 23.4704 50.6296 23.3651 50.6377 23.2491L50.724 22.7173C50.7429 22.6012 50.6646 22.4933 50.5486 22.4852L50.608 22.1073C50.724 22.1073 50.832 22.002 50.8509 21.8751L50.9373 21.3514C50.9562 21.2246 50.8779 21.1274 50.7645 21.1193L50.8212 20.7414C50.9373 20.7306 51.0452 20.6361 51.0641 20.5093L51.1424 19.9856C51.1613 19.8506 51.0857 19.7427 50.9589 19.7427C50.9589 19.7319 50.9589 19.7319 50.9589 19.713L51.0182 19.3729C51.1451 19.3729 51.2612 19.2676 51.2801 19.1407L51.3476 18.6468H63.3079C63.9665 18.6468 64.4227 19.2271 64.3066 19.9343L64.1149 21.0707Z" fill="#F06022"/>
</svg>
